<?xml version="1.0" encoding="UTF-8" standalone="no"?>
<!-- Created with Inkscape (http://www.inkscape.org/) -->

<svg
   xmlns:dc="http://purl.org/dc/elements/1.1/"
   xmlns:cc="http://creativecommons.org/ns#"
   xmlns:rdf="http://www.w3.org/1999/02/22-rdf-syntax-ns#"
   xmlns:svg="http://www.w3.org/2000/svg"
   xmlns="http://www.w3.org/2000/svg"
   version="1.1"
   width="48"
   height="48"
   id="svg3003">
  <defs
     id="defs3005" />
  <metadata
     id="metadata3008">
    <rdf:RDF>
      <cc:Work
         rdf:about="">
        <dc:format>image/svg+xml</dc:format>
        <dc:type
           rdf:resource="http://purl.org/dc/dcmitype/StillImage" />
        <dc:title></dc:title>
      </cc:Work>
    </rdf:RDF>
  </metadata>
  <g
     transform="translate(0,-1004.3622)"
     id="layer1">
    <g
       transform="matrix(1,0,0,0.99997556,0,-1.4742803)"
       id="g3022">
      <path
         d="m 23.999817,1038.8621 c 6.504799,0 12.000091,-6.5258 12.000091,-14.2501 0,-7.7243 -5.495292,-14.2501 -12.000091,-14.2501 -6.5048,0 -12.000092,6.5258 -12.000092,14.2501 0,7.7243 5.495292,14.2501 12.000092,14.2501 z m 0,-25.5009 c 4.878787,0 9.000068,5.1517 9.000068,11.25 0,6.0983 -4.121281,11.2501 -9.000068,11.2501 -4.878788,0 -9.000069,-5.1518 -9.000069,-11.2501 0,-6.0983 4.121281,-11.25 9.000069,-11.25 z"
         id="path3"
         style="fill:#000000" />
      <path
         d="m 3.0769068,1041.3874 -3.00002662,9 c -0.15225117,0.4575 -0.07575058,0.9608 0.20625157,1.3515 0.28125215,0.3923 0.73425555,0.6233 1.21651305,0.6233 H 46.499989 c 0.482253,0 0.935257,-0.231 1.216509,-0.6233 0.281252,-0.3907 0.359253,-0.8932 0.206251,-1.3515 l -3.000023,-9 c -0.156751,-0.4695 -0.534754,-0.831 -1.011007,-0.9675 l -10.50008,-3.0001 c -0.361503,-0.1042 -0.747006,-0.067 -1.083009,0.1005 l -8.328813,4.1648 -8.328814,-4.1648 c -0.336003,-0.1672 -0.721506,-0.204 -1.083008,-0.1005 l -10.5000804,3.0001 c -0.4762537,0.1357 -0.8542566,0.498 -1.0110078,0.9675 z m 11.7743402,-0.9233 8.478064,4.239 c 0.422254,0.2108 0.920258,0.2108 1.341761,0 l 8.477315,-4.239 9.17857,2.622 2.091766,6.2753 H 3.5801607 l 2.091766,-6.2753 9.1793203,-2.622 z"
         id="path5"
         style="fill:#000000" />
      <path
         d="m 46.499989,1011.8611 h -3.000023 v -3 c 0,-0.828 -0.672006,-1.5 -1.500012,-1.5 -0.828006,0 -1.500011,0.672 -1.500011,1.5 v 3 H 37.49992 c -0.828007,0 -1.500012,0.672 -1.500012,1.5001 0,0.828 0.672005,1.5 1.500012,1.5 h 3.000023 v 3 c 0,0.828 0.672005,1.5 1.500011,1.5 0.828006,0 1.500012,-0.672 1.500012,-1.5 v -3 h 3.000023 c 0.828006,0 1.500011,-0.672 1.500011,-1.5 0,-0.8281 -0.672005,-1.5001 -1.500011,-1.5001 z"
         id="path7"
         style="fill:#000000" />
    </g>
  </g>
</svg>
