<?xml version="1.0" encoding="UTF-8" standalone="no"?>
<!-- Created with Inkscape (http://www.inkscape.org/) -->

<svg
   xmlns:dc="http://purl.org/dc/elements/1.1/"
   xmlns:cc="http://creativecommons.org/ns#"
   xmlns:rdf="http://www.w3.org/1999/02/22-rdf-syntax-ns#"
   xmlns:svg="http://www.w3.org/2000/svg"
   xmlns="http://www.w3.org/2000/svg"
   xmlns:sodipodi="http://sodipodi.sourceforge.net/DTD/sodipodi-0.dtd"
   xmlns:inkscape="http://www.inkscape.org/namespaces/inkscape"
   width="48px"
   height="48px"
   id="svg3000"
   version="1.1"
   inkscape:version="0.48.4 r9939"
   sodipodi:docname="banner-next.svg">
  <defs
     id="defs3002" />
  <sodipodi:namedview
     id="base"
     pagecolor="#ffffff"
     bordercolor="#666666"
     borderopacity="1.0"
     inkscape:pageopacity="0.0"
     inkscape:pageshadow="2"
     inkscape:zoom="2.4748737"
     inkscape:cx="47.766688"
     inkscape:cy="21.418718"
     inkscape:current-layer="layer1"
     showgrid="true"
     inkscape:grid-bbox="true"
     inkscape:document-units="px"
     inkscape:window-width="1224"
     inkscape:window-height="900"
     inkscape:window-x="1730"
     inkscape:window-y="50"
     inkscape:window-maximized="0" />
  <metadata
     id="metadata3005">
    <rdf:RDF>
      <cc:Work
         rdf:about="">
        <dc:format>image/svg+xml</dc:format>
        <dc:type
           rdf:resource="http://purl.org/dc/dcmitype/StillImage" />
        <dc:title></dc:title>
      </cc:Work>
    </rdf:RDF>
  </metadata>
  <g
     id="layer1"
     inkscape:label="Layer 1"
     inkscape:groupmode="layer">
    <g
       id="g3017"
       transform="matrix(-0.75,0,0,0.74998828,44.357143,-0.96389567)">
      <path
         style="fill:#000000"
         id="path3"
         d="m 23.515857,14.831214 c -0.803,-0.758 -2.068,-0.722 -2.827,0.081 -0.758,0.803 -0.722,2.069 0.081,2.827 l 16.461,15.546 -16.461,15.546 c -0.803,0.759 -0.839,2.024 -0.081,2.827 0.394,0.417 0.924,0.627 1.455,0.627 0.492,0 0.986,-0.182 1.372,-0.546 l 18,-17 c 0.4,-0.378 0.627,-0.904 0.627,-1.454 0,-0.55 -0.227,-1.076 -0.627,-1.454 l -18,-17 z"
         inkscape:connector-curvature="0" />
      <path
         style="fill:#000000"
         id="path5"
         d="m 27.142857,1.2852143 c -8.547,0 -16.582,3.329 -22.6249999,9.3729997 -6.045,6.044 -9.375,14.08 -9.375,22.627 0,8.548 3.33,16.583 9.374,22.627 6.0439999,6.044 14.0789999,9.374 22.6259999,9.374 8.547,0 16.583,-3.329 22.626,-9.373 6.045,-6.044 9.374,-14.08 9.374,-22.627 0,-8.547 -3.329,-16.583 -9.374,-22.626 -6.044,-6.0449997 -14.079,-9.3749997 -22.626,-9.3749997 z m 19.797,51.7989997 c -5.288,5.289 -12.318,8.202 -19.797,8.202 -7.479,0 -14.509,-2.913 -19.7979999,-8.202 -5.289,-5.288 -8.20199996,-12.319 -8.20199996,-19.798 0,-7.478 2.91299996,-14.51 8.20299996,-19.798 C 12.633857,8.1992143 19.663857,5.2872143 27.142857,5.2872143 c 7.479,0 14.509,2.912 19.798,8.2019997 5.289,5.288 8.203,12.32 8.203,19.798 0,7.477 -2.914,14.508 -8.204,19.797 z"
         inkscape:connector-curvature="0" />
    </g>
  </g>
</svg>
