<?xml version="1.0" encoding="UTF-8" standalone="no"?>
<!-- Created with Inkscape (http://www.inkscape.org/) -->

<svg
   xmlns:dc="http://purl.org/dc/elements/1.1/"
   xmlns:cc="http://creativecommons.org/ns#"
   xmlns:rdf="http://www.w3.org/1999/02/22-rdf-syntax-ns#"
   xmlns:svg="http://www.w3.org/2000/svg"
   xmlns="http://www.w3.org/2000/svg"
   xmlns:sodipodi="http://sodipodi.sourceforge.net/DTD/sodipodi-0.dtd"
   xmlns:inkscape="http://www.inkscape.org/namespaces/inkscape"
   width="48px"
   height="48px"
   id="svg2997"
   version="1.1"
   inkscape:version="0.48.4 r9939"
   sodipodi:docname="New document 2">
  <defs
     id="defs2999" />
  <sodipodi:namedview
     id="base"
     pagecolor="#ffffff"
     bordercolor="#666666"
     borderopacity="1.0"
     inkscape:pageopacity="0.0"
     inkscape:pageshadow="2"
     inkscape:zoom="4.9497475"
     inkscape:cx="12.434908"
     inkscape:cy="28.998258"
     inkscape:current-layer="layer1"
     showgrid="true"
     inkscape:grid-bbox="true"
     inkscape:document-units="px"
     inkscape:window-width="946"
     inkscape:window-height="640"
     inkscape:window-x="1855"
     inkscape:window-y="175"
     inkscape:window-maximized="0" />
  <metadata
     id="metadata3002">
    <rdf:RDF>
      <cc:Work
         rdf:about="">
        <dc:format>image/svg+xml</dc:format>
        <dc:type
           rdf:resource="http://purl.org/dc/dcmitype/StillImage" />
        <dc:title></dc:title>
      </cc:Work>
    </rdf:RDF>
  </metadata>
  <g
     id="layer1"
     inkscape:label="Layer 1"
     inkscape:groupmode="layer">
    <path
       inkscape:connector-curvature="0"
       d="m 0,4.9935194 c 0,0.8075249 0.6719962,1.46258 1.5006974,1.46258 h 4.6249141 l 2.875749,32.2939346 c 0,0.0014 0,0 0,0 0,3.163747 2.7331605,5.716203 5.9971415,5.716203 2.789631,0 5.135971,-1.867754 5.805144,-4.386328 h 6.395258 c 0.669172,2.518574 3.012688,4.386328 5.80232,4.386328 3.309157,0 5.999966,-2.623044 5.999966,-5.848908 0,-3.225864 -2.690809,-5.848908 -5.999966,-5.848908 -2.789631,0 -5.133148,1.867754 -5.80232,4.386328 h -6.395258 c -0.669173,-2.518574 -3.012689,-4.386328 -5.80232,-4.386328 -1.271992,0 -2.45081,0.389645 -3.42351,1.051759 l -0.420704,-4.715268 c 0.03106,0 0.05929,0.01412 0.09176,0.01412 0.02541,0 0.04941,0 0.07482,0 l 30.749473,-1.461168 c 0.640938,-0.03106 1.191523,-0.45741 1.367993,-1.058818 L 47.941845,11.24619 C 48.071727,10.80431 47.981374,10.32996 47.697611,9.9643149 47.413848,9.5972581 46.971968,9.3826711 46.500441,9.3826711 H 9.3980635 L 8.9957135,4.8692849 C 8.9279535,4.113995 8.2785405,3.533763 7.5020745,3.533763 H 1.5021091 C 0.6719962,3.533763 0,4.1888182 0,4.9963429 z M 32.999812,35.699228 c 1.654579,0 2.999983,1.311522 2.999983,2.923748 0,1.612226 -1.345404,2.92516 -2.999983,2.92516 -1.654579,0 -2.999983,-1.311522 -2.999983,-2.92516 0,-1.613638 1.345404,-2.923748 2.999983,-2.923748 z m -17.999898,0 c 1.654579,0 2.999983,1.311522 2.999983,2.923748 0,1.612226 -1.345404,2.92516 -2.999983,2.92516 -1.654579,0 -2.999983,-1.311522 -2.999983,-2.92516 0,-1.613638 1.345404,-2.923748 2.999983,-2.923748 z M 44.511276,12.305007 40.853414,24.786348 11.176877,26.196693 c -0.09459,0 -0.186352,0.02118 -0.276705,0.04094 L 9.6578265,12.305007 H 44.511276 z"
       id="path3"
       style="fill:#000000" />
  </g>
</svg>
