<?xml version="1.0" encoding="UTF-8" standalone="no"?>
<!-- Generator: Adobe Illustrator 16.0.0, SVG Export Plug-In . SVG Version: 6.00 Build 0)  -->

<svg
   xmlns:dc="http://purl.org/dc/elements/1.1/"
   xmlns:cc="http://creativecommons.org/ns#"
   xmlns:rdf="http://www.w3.org/1999/02/22-rdf-syntax-ns#"
   xmlns:svg="http://www.w3.org/2000/svg"
   xmlns="http://www.w3.org/2000/svg"
   xmlns:sodipodi="http://sodipodi.sourceforge.net/DTD/sodipodi-0.dtd"
   xmlns:inkscape="http://www.inkscape.org/namespaces/inkscape"
   version="1.1"
   id="Layer_1"
   x="0px"
   y="0px"
   width="48"
   height="48"
   viewBox="0 0 48 48.000001"
   enable-background="new 0 0 2600 3401"
   xml:space="preserve"
   inkscape:version="0.48.4 r9939"
   sodipodi:docname="close [Converted].svg"><metadata
   id="metadata9"><rdf:RDF><cc:Work
       rdf:about=""><dc:format>image/svg+xml</dc:format><dc:type
         rdf:resource="http://purl.org/dc/dcmitype/StillImage" /><dc:title></dc:title></cc:Work></rdf:RDF></metadata><defs
   id="defs7" /><sodipodi:namedview
   pagecolor="#ffffff"
   bordercolor="#666666"
   borderopacity="1"
   objecttolerance="10"
   gridtolerance="10"
   guidetolerance="10"
   inkscape:pageopacity="0"
   inkscape:pageshadow="2"
   inkscape:window-width="1512"
   inkscape:window-height="1030"
   id="namedview5"
   showgrid="false"
   fit-margin-top="0"
   fit-margin-left="0"
   fit-margin-right="0"
   fit-margin-bottom="0"
   inkscape:zoom="25.122354"
   inkscape:cx="6.4751494"
   inkscape:cy="3.1412278"
   inkscape:window-x="0"
   inkscape:window-y="192"
   inkscape:window-maximized="0"
   inkscape:current-layer="Layer_1" />
<path
   d="m 0.93703998,47.060797 c 0.62498732,0.624959 1.44417982,0.939204 2.26337232,0.939204 0.8191924,0 1.6383849,-0.314245 2.2598413,-0.939204 L 23.998015,28.523889 42.535776,47.060797 c 0.624987,0.624959 1.44418,0.939204 2.263372,0.939204 0.819193,0 1.638385,-0.314245 2.263372,-0.939204 1.249975,-1.249916 1.249975,-3.276618 0,-4.523005 L 28.52476,24.000883 47.06252,5.4639745 c 1.249975,-1.249917 1.249975,-3.27662 0,-4.526536 -1.249974,-1.249918 -3.273239,-1.249918 -4.523213,0 L 24.001546,19.474346 5.4637846,0.9374385 c -1.2499748,-1.249918 -3.2732389,-1.249918 -4.52321362,0 -1.24997475,1.249916 -1.24997475,3.276619 0,4.526536 L 19.478332,24.000883 0.94057098,42.537792 c -1.25350575,1.246387 -1.25350575,3.273089 -0.003531,4.523005 z"
   id="path3"
   style="fill:#000000"
   inkscape:connector-curvature="0" />
</svg>