<?xml version="1.0" encoding="UTF-8" standalone="no"?>
<!-- Created with Inkscape (http://www.inkscape.org/) -->

<svg
   xmlns:dc="http://purl.org/dc/elements/1.1/"
   xmlns:cc="http://creativecommons.org/ns#"
   xmlns:rdf="http://www.w3.org/1999/02/22-rdf-syntax-ns#"
   xmlns:svg="http://www.w3.org/2000/svg"
   xmlns="http://www.w3.org/2000/svg"
   xmlns:sodipodi="http://sodipodi.sourceforge.net/DTD/sodipodi-0.dtd"
   xmlns:inkscape="http://www.inkscape.org/namespaces/inkscape"
   width="48px"
   height="48px"
   id="svg3000"
   version="1.1"
   inkscape:version="0.48.4 r9939"
   sodipodi:docname="New document 2">
  <defs
     id="defs3002" />
  <sodipodi:namedview
     id="base"
     pagecolor="#ffffff"
     bordercolor="#666666"
     borderopacity="1.0"
     inkscape:pageopacity="0.0"
     inkscape:pageshadow="2"
     inkscape:zoom="7"
     inkscape:cx="24"
     inkscape:cy="17.309882"
     inkscape:current-layer="layer1"
     showgrid="true"
     inkscape:grid-bbox="true"
     inkscape:document-units="px"
     inkscape:window-width="1168"
     inkscape:window-height="803"
     inkscape:window-x="1755"
     inkscape:window-y="75"
     inkscape:window-maximized="0" />
  <metadata
     id="metadata3005">
    <rdf:RDF>
      <cc:Work
         rdf:about="">
        <dc:format>image/svg+xml</dc:format>
        <dc:type
           rdf:resource="http://purl.org/dc/dcmitype/StillImage" />
        <dc:title></dc:title>
      </cc:Work>
    </rdf:RDF>
  </metadata>
  <g
     id="layer1"
     inkscape:label="Layer 1"
     inkscape:groupmode="layer">
    <path
       inkscape:connector-curvature="0"
       d="M 46.499976,45 H 3.0000471 v -6 h 3.000047 c 0.828013,0 1.500023,-0.672 1.500023,-1.5 0,-0.828 -0.67201,-1.5 -1.500023,-1.5 h -3.000047 v -4.5 c 0.828013,0 1.500023,-0.672 1.500023,-1.5 0,-0.828 -0.67201,-1.5 -1.500023,-1.5 V 24 h 3.000047 c 0.828013,0 1.500023,-0.672 1.500023,-1.5 0,-0.828 -0.67201,-1.5 -1.500023,-1.5 h -3.000047 v -4.5 c 0.828013,0 1.500023,-0.672001 1.500023,-1.500001 0,-0.828 -0.67201,-1.499999 -1.500023,-1.499999 V 9 h 3.000047 c 0.828013,0 1.500023,-0.672 1.500023,-1.5 0,-0.828 -0.67201,-1.5 -1.500023,-1.5 H 3.0000471 V 1.5 C 3.0000471,0.672 2.3280361,0 1.5000234,0 0.6720105,0 0,0.672 0,1.5 V 45 c 0,1.6545 1.345521,3 3.0000471,3 H 46.499976 C 47.328739,48 48,47.328 48,46.5 48,45.672 47.328739,45 46.499976,45 z"
       id="path3"
       style="fill:#000000" />
    <path
       inkscape:connector-curvature="0"
       d="M 41.999906,25.499999 C 42.827919,25.499999 43.49993,24.828 43.49993,24 v -7.5 c 0,-0.09825 -0.0105,-0.19725 -0.03,-0.294 -0.0098,-0.045 -0.02625,-0.08625 -0.03825,-0.12975 -0.015,-0.05025 -0.027,-0.10125 -0.0465,-0.15 -0.02175,-0.051 -0.05175,-0.09825 -0.078,-0.14625 -0.02025,-0.0375 -0.036,-0.0765 -0.06,-0.111 -0.111002,-0.165001 -0.252004,-0.306 -0.417007,-0.417001 -0.0345,-0.02325 -0.07425,-0.03975 -0.111002,-0.06 -0.048,-0.02625 -0.09525,-0.0555 -0.146252,-0.078 -0.04875,-0.0195 -0.09975,-0.0315 -0.150002,-0.04575 -0.0435,-0.01275 -0.08475,-0.02925 -0.129752,-0.039 -0.09675,-0.0195 -0.195753,-0.02925 -0.294005,-0.02925 h -7.500117 c -0.828013,0 -1.500023,0.672001 -1.500023,1.500001 0,0.828 0.67201,1.499999 1.500023,1.499999 h 3.879061 l -14.379229,14.378997 -3.438804,-3.4395 c -0.585759,-0.58575 -1.535274,-0.58575 -2.121033,0 l -7.500117,7.5 c -0.585759,0.58575 -0.585759,1.53525 0,2.121 0.293254,0.29325 0.67651,0.4395 1.060516,0.4395 0.384006,0 0.767262,-0.14625 1.060517,-0.4395 l 6.438851,-6.4395 3.439553,3.4395 c 0.58651,0.58575 1.535274,0.58575 2.121033,0 L 40.499133,20.120999 V 24 c 0,0.82875 0.67276,1.499999 1.500773,1.499999 z"
       id="path5"
       style="fill:#000000" />
  </g>
</svg>
