<?xml version="1.0" encoding="UTF-8" standalone="no"?>
<!-- Created with Inkscape (http://www.inkscape.org/) -->

<svg
   xmlns:dc="http://purl.org/dc/elements/1.1/"
   xmlns:cc="http://creativecommons.org/ns#"
   xmlns:rdf="http://www.w3.org/1999/02/22-rdf-syntax-ns#"
   xmlns:svg="http://www.w3.org/2000/svg"
   xmlns="http://www.w3.org/2000/svg"
   xmlns:sodipodi="http://sodipodi.sourceforge.net/DTD/sodipodi-0.dtd"
   xmlns:inkscape="http://www.inkscape.org/namespaces/inkscape"
   width="48"
   height="48"
   id="svg2"
   version="1.1"
   inkscape:version="0.48.4 r9939"
   sodipodi:docname="instagram.svg">
  <defs
     id="defs4" />
  <sodipodi:namedview
     id="base"
     pagecolor="#ffffff"
     bordercolor="#666666"
     borderopacity="1.0"
     inkscape:pageopacity="0.0"
     inkscape:pageshadow="2"
     inkscape:zoom="8"
     inkscape:cx="14.290783"
     inkscape:cy="16.32031"
     inkscape:document-units="px"
     inkscape:current-layer="layer1"
     showgrid="true"
     inkscape:window-width="1030"
     inkscape:window-height="804"
     inkscape:window-x="1908"
     inkscape:window-y="33"
     inkscape:window-maximized="0">
    <inkscape:grid
       type="xygrid"
       id="grid3010"
       empspacing="5"
       visible="true"
       enabled="true"
       snapvisiblegridlinesonly="true" />
  </sodipodi:namedview>
  <metadata
     id="metadata7">
    <rdf:RDF>
      <cc:Work
         rdf:about="">
        <dc:format>image/svg+xml</dc:format>
        <dc:type
           rdf:resource="http://purl.org/dc/dcmitype/StillImage" />
        <dc:title />
      </cc:Work>
    </rdf:RDF>
  </metadata>
  <g
     inkscape:label="Layer 1"
     inkscape:groupmode="layer"
     id="layer1"
     transform="translate(0,-1004.3622)">
    <path
       style="fill:#000000"
       d="m 4.8037694,1052.3264 c -0.3866625,-0.049 -0.8856118,-0.1793 -1.2901654,-0.3362 -1.7532424,-0.6803 -3.03299377,-2.1928 -3.44404023,-4.0704 C 0.0022773,1047.6122 0,1046.9806 0,1028.3556 c 0,-18.4157 0.00325328,-19.2598 0.06752897,-19.5595 0.22638834,-1.0495 0.70223918,-1.966 1.40317673,-2.7023 0.7875141,-0.8274 1.7221703,-1.367 2.824757,-1.6314 l 0.4148461,-0.1002 19.2710212,0 c 18.532924,0 19.28293,0 19.581877,0.068 2.216458,0.4875 3.863598,2.1278 4.352457,4.3346 l 0.08434,0.3807 0,19.2088 0,19.2092 -0.106338,0.4483 c -0.543927,2.2939 -2.33566,3.9548 -4.63449,4.296 -0.348851,0.052 -2.396583,0.058 -19.301338,0.053 -10.401101,0 -19.0204227,-0.018 -19.1540753,-0.036 z m 36.2773456,-5.7803 c 0.611454,-0.2327 1.048628,-0.7333 1.176655,-1.3471 0.02953,-0.1417 0.04133,-3.0758 0.04133,-10.3237 l 0,-10.1261 -1.96514,0 c -1.854358,0 -1.963986,0 -1.944848,0.065 0.05988,0.193 0.214549,0.9913 0.28059,1.4482 0.299037,2.0686 0.148355,4.2485 -0.432728,6.2597 -0.540793,1.8718 -1.56119,3.8013 -2.79633,5.2882 -2.36609,2.8478 -5.681913,4.7014 -9.328457,5.2145 -1.515666,0.2129 -3.234664,0.1846 -4.747662,-0.078 -5.298904,-0.9219 -9.729013,-4.7418 -11.4398985,-9.8636 -0.4862573,-1.4558 -0.7005621,-2.7191 -0.7356218,-4.3369 -0.029448,-1.3565 0.074033,-2.4975 0.3228585,-3.5594 0.042305,-0.1805 0.076962,-0.353 0.076962,-0.383 0,-0.047 -0.2638147,-0.054 -1.9439131,-0.054 l -1.9439458,0 0,10.1746 c 0,8.3758 0.0092,10.2073 0.050445,10.3612 0.1704604,0.6369 0.6918493,1.1528 1.3186259,1.3049 0.1881887,0.046 2.5991263,0.052 17.0043158,0.047 l 16.785042,-0.012 0.221287,-0.084 z m -16.04113,-9.1682 c 1.690943,-0.2083 3.350896,-0.9166 4.684413,-1.9995 0.444764,-0.3611 1.163022,-1.106 1.505,-1.5607 1.910809,-2.5416 2.376545,-5.7695 1.253164,-8.6856 -1.05356,-2.7346 -3.329028,-4.7852 -6.185398,-5.574 -0.522586,-0.1444 -1.37317,-0.2681 -1.998076,-0.2907 -1.545599,-0.056 -3.060517,0.2898 -4.462904,1.0191 -1.404113,0.7301 -2.529105,1.7448 -3.415061,3.0801 -1.738546,2.62 -1.996771,5.8221 -0.702563,8.7122 0.535781,1.1966 1.545412,2.5045 2.561836,3.3186 0.902495,0.7228 2.120901,1.3679 3.1538,1.6693 0.584127,0.1707 1.339773,0.305 2.061156,0.3667 0.250788,0.022 1.195354,-0.013 1.544633,-0.055 z m 15.988072,-18.4115 c 0.461652,-0.1553 0.822118,-0.4538 1.038074,-0.8589 0.237813,-0.4458 0.232955,-0.3724 0.232955,-3.5261 0,-1.768 -0.01441,-2.9407 -0.03767,-3.0633 -0.112978,-0.5954 -0.532795,-1.1 -1.124561,-1.3513 l -0.202257,-0.086 -3.143003,0 -3.143001,0 -0.319939,0.1584 c -0.528613,0.2619 -0.896686,0.74 -0.998396,1.2965 -0.02684,0.1468 -0.04036,1.1766 -0.03995,3.046 5.77e-4,3.0647 0.0017,3.0761 0.208585,3.4849 0.05363,0.1056 0.181918,0.2815 0.28506,0.3906 0.320571,0.3388 0.649833,0.5112 1.094587,0.5728 0.12336,0.017 1.502806,0.029 3.065417,0.024 2.815954,-0.012 2.843275,-0.012 3.084112,-0.089 z"
       id="path3008"
       inkscape:connector-curvature="0" />
    <path
       style="fill:#000000"
       d=""
       id="path3000"
       inkscape:connector-curvature="0" />
    <path
       style="fill:#000000"
       d=""
       id="path2998"
       inkscape:connector-curvature="0" />
  </g>
</svg>
