<?xml version="1.0" encoding="UTF-8" standalone="no"?>
<!-- Generator: Adobe Illustrator 16.0.0, SVG Export Plug-In . SVG Version: 6.00 Build 0)  -->

<svg
   xmlns:dc="http://purl.org/dc/elements/1.1/"
   xmlns:cc="http://creativecommons.org/ns#"
   xmlns:rdf="http://www.w3.org/1999/02/22-rdf-syntax-ns#"
   xmlns:svg="http://www.w3.org/2000/svg"
   xmlns="http://www.w3.org/2000/svg"
   xmlns:sodipodi="http://sodipodi.sourceforge.net/DTD/sodipodi-0.dtd"
   xmlns:inkscape="http://www.inkscape.org/namespaces/inkscape"
   version="1.1"
   id="Layer_1"
   x="0px"
   y="0px"
   width="48"
   height="48"
   viewBox="0 0 48 48"
   enable-background="new 0 0 2600 3401"
   xml:space="preserve"
   inkscape:version="0.48.4 r9939"
   sodipodi:docname="news [Converted].svg"><metadata
   id="metadata23"><rdf:RDF><cc:Work
       rdf:about=""><dc:format>image/svg+xml</dc:format><dc:type
         rdf:resource="http://purl.org/dc/dcmitype/StillImage" /><dc:title></dc:title></cc:Work></rdf:RDF></metadata><defs
   id="defs21" /><sodipodi:namedview
   pagecolor="#ffffff"
   bordercolor="#666666"
   borderopacity="1"
   objecttolerance="10"
   gridtolerance="10"
   guidetolerance="10"
   inkscape:pageopacity="0"
   inkscape:pageshadow="2"
   inkscape:window-width="984"
   inkscape:window-height="480"
   id="namedview19"
   showgrid="false"
   inkscape:zoom="4.4410467"
   inkscape:cx="4.8625668"
   inkscape:cy="20.964267"
   inkscape:window-x="0"
   inkscape:window-y="192"
   inkscape:window-maximized="0"
   inkscape:current-layer="Layer_1" />
<path
   d="m 46.5,3.8731393 h -45 c -0.828,0 -1.5,0.68 -1.5,1.519 V 43.355139 c 0,0.839 0.672,1.519 1.5,1.519 h 45 c 0.829,0 1.5,-0.68 1.5,-1.519 V 5.3921393 c 0,-0.839 -0.671,-1.519 -1.5,-1.519 z m -1.5,3.037 V 12.984139 H 3 V 6.9101393 H 45 z M 3,41.836139 v -25.814 h 42 v 25.814 H 3 z"
   id="path3"
   style="fill:#000000"
   inkscape:connector-curvature="0" />
<path
   d="m 7.5,11.466139 c 0.39,0 0.781,-0.16 1.058,-0.448 0.286,-0.281 0.442,-0.676 0.442,-1.0709997 0,-0.395 -0.157,-0.79 -0.442,-1.078 -0.555,-0.562 -1.56,-0.562 -2.123,0.01 -0.277,0.281 -0.435,0.668 -0.435,1.071 0,0.4019997 0.158,0.7899997 0.442,1.0779997 0.279,0.281 0.669,0.441 1.058,0.441 z"
   id="path5"
   style="fill:#000000"
   inkscape:connector-curvature="0" />
<path
   d="m 12,11.466139 c 0.39,0 0.781,-0.16 1.065,-0.448 0.278,-0.281 0.435,-0.676 0.435,-1.0709997 0,-0.395 -0.157,-0.79 -0.442,-1.078 -0.555,-0.562 -1.56,-0.562 -2.123,0.01 -0.277,0.281 -0.435,0.676 -0.435,1.071 0,0.3949997 0.158,0.7899997 0.442,1.0779997 0.279,0.281 0.669,0.441 1.058,0.441 z"
   id="path7"
   style="fill:#000000"
   inkscape:connector-curvature="0" />
<path
   d="m 16.5,11.466139 c 0.398,0 0.781,-0.16 1.058,-0.448 0.285,-0.281 0.442,-0.669 0.442,-1.0709997 0,-0.395 -0.157,-0.79 -0.442,-1.078 -0.555,-0.562 -1.56,-0.562 -2.123,0.01 -0.277,0.281 -0.435,0.676 -0.435,1.071 0,0.4019997 0.158,0.7899997 0.442,1.0709997 0.279,0.288 0.669,0.448 1.058,0.448 z"
   id="path9"
   style="fill:#000000"
   inkscape:connector-curvature="0" />
<path
   d="M 23.25,19.058139 H 7.5 c -0.828,0 -1.5,0.68 -1.5,1.519 0,0.838 0.672,1.518 1.5,1.518 h 15.75 c 0.829,0 1.5,-0.68 1.5,-1.518 0,-0.839 -0.671,-1.519 -1.5,-1.519 z"
   id="path11"
   style="fill:#000000"
   inkscape:connector-curvature="0" />
<path
   d="M 23.25,25.132139 H 7.5 c -0.828,0 -1.5,0.68 -1.5,1.519 0,0.839 0.672,1.519 1.5,1.519 h 15.75 c 0.829,0 1.5,-0.68 1.5,-1.519 0,-0.839 -0.671,-1.519 -1.5,-1.519 z"
   id="path13"
   style="fill:#000000"
   inkscape:connector-curvature="0" />
<path
   d="M 23.25,31.206139 H 7.5 c -0.828,0 -1.5,0.68 -1.5,1.519 0,0.838 0.672,1.519 1.5,1.519 h 15.75 c 0.829,0 1.5,-0.68 1.5,-1.519 0,-0.839 -0.671,-1.519 -1.5,-1.519 z"
   id="path15"
   style="fill:#000000"
   inkscape:connector-curvature="0" />
<path
   d="M 40.5,19.058139 H 29.25 c -0.828,0 -1.5,0.68 -1.5,1.519 v 12.148 c 0,0.838 0.672,1.519 1.5,1.519 H 40.5 c 0.829,0 1.5,-0.68 1.5,-1.519 v -12.148 c 0,-0.839 -0.671,-1.519 -1.5,-1.519 z m -1.5,12.148 h -8.25 v -9.111 H 39 v 9.111 z"
   id="path17"
   style="fill:#000000"
   inkscape:connector-curvature="0" />
</svg>