<?xml version="1.0" encoding="UTF-8" standalone="no"?>
<!-- Created with Inkscape (http://www.inkscape.org/) -->

<svg
   xmlns:dc="http://purl.org/dc/elements/1.1/"
   xmlns:cc="http://creativecommons.org/ns#"
   xmlns:rdf="http://www.w3.org/1999/02/22-rdf-syntax-ns#"
   xmlns:svg="http://www.w3.org/2000/svg"
   xmlns="http://www.w3.org/2000/svg"
   xmlns:sodipodi="http://sodipodi.sourceforge.net/DTD/sodipodi-0.dtd"
   xmlns:inkscape="http://www.inkscape.org/namespaces/inkscape"
   width="48px"
   height="48px"
   id="svg3056"
   version="1.1"
   inkscape:version="0.48.4 r9939"
   sodipodi:docname="plus.svg">
  <defs
     id="defs3058" />
  <sodipodi:namedview
     id="base"
     pagecolor="#ffffff"
     bordercolor="#666666"
     borderopacity="1.0"
     inkscape:pageopacity="0.0"
     inkscape:pageshadow="2"
     inkscape:zoom="6.9999999"
     inkscape:cx="48.522555"
     inkscape:cy="25.628711"
     inkscape:current-layer="layer1"
     showgrid="true"
     inkscape:grid-bbox="true"
     inkscape:document-units="px"
     inkscape:window-width="904"
     inkscape:window-height="718"
     inkscape:window-x="2038"
     inkscape:window-y="54"
     inkscape:window-maximized="0">
    <inkscape:grid
       type="xygrid"
       id="grid2983" />
  </sodipodi:namedview>
  <metadata
     id="metadata3061">
    <rdf:RDF>
      <cc:Work
         rdf:about="">
        <dc:format>image/svg+xml</dc:format>
        <dc:type
           rdf:resource="http://purl.org/dc/dcmitype/StillImage" />
        <dc:title />
      </cc:Work>
    </rdf:RDF>
  </metadata>
  <g
     id="layer1"
     inkscape:label="Layer 1"
     inkscape:groupmode="layer">
    <path
       id="path2986"
       d="M 45.6,21.6 H 26.4 V 2.4000001 C 26.4,1.0742069 25.325792,0 23.999999,0 22.674207,0 21.599998,1.0742069 21.599998,2.4000001 V 21.6 H 2.4 C 1.0742069,21.6 0,22.674208 0,24 c 0,1.325793 1.0758621,2.400002 2.4,2.400002 H 21.599998 V 45.600001 C 21.599998,46.925793 22.674207,48 23.999999,48 25.325792,48 26.4,46.925793 26.4,45.600001 V 26.400002 h 19.2 c 1.325792,0 2.4,-1.074209 2.4,-2.400002 0,-1.325792 -1.074208,-2.4 -2.4,-2.4 z"
       stroke-miterlimit="10"
       inkscape:connector-curvature="0"
       style="fill:#000000;stroke:none" />
  </g>
</svg>
