<?xml version="1.0" encoding="UTF-8" standalone="no"?>
<!-- Generator: Adobe Illustrator 16.0.0, SVG Export Plug-In . SVG Version: 6.00 Build 0)  -->

<svg
   xmlns:dc="http://purl.org/dc/elements/1.1/"
   xmlns:cc="http://creativecommons.org/ns#"
   xmlns:rdf="http://www.w3.org/1999/02/22-rdf-syntax-ns#"
   xmlns:svg="http://www.w3.org/2000/svg"
   xmlns="http://www.w3.org/2000/svg"
   xmlns:sodipodi="http://sodipodi.sourceforge.net/DTD/sodipodi-0.dtd"
   xmlns:inkscape="http://www.inkscape.org/namespaces/inkscape"
   version="1.1"
   id="Layer_1"
   x="0px"
   y="0px"
   width="48"
   height="48"
   viewBox="0 0 48 48"
   enable-background="new 0 0 2600 3401"
   xml:space="preserve"
   inkscape:version="0.48.4 r9939"
   sodipodi:docname="stats [Converted].svg"><metadata
   id="metadata9"><rdf:RDF><cc:Work
       rdf:about=""><dc:format>image/svg+xml</dc:format><dc:type
         rdf:resource="http://purl.org/dc/dcmitype/StillImage" /><dc:title></dc:title></cc:Work></rdf:RDF></metadata><defs
   id="defs7" /><sodipodi:namedview
   pagecolor="#ffffff"
   bordercolor="#666666"
   borderopacity="1"
   objecttolerance="10"
   gridtolerance="10"
   guidetolerance="10"
   inkscape:pageopacity="0"
   inkscape:pageshadow="2"
   inkscape:window-width="981"
   inkscape:window-height="480"
   id="namedview5"
   showgrid="false"
   inkscape:zoom="4.4410467"
   inkscape:cx="1283.2728"
   inkscape:cy="843.94081"
   inkscape:window-x="0"
   inkscape:window-y="192"
   inkscape:window-maximized="0"
   inkscape:current-layer="Layer_1" />
<path
   d="M 46.5017,45.0006 H 45.0015 V 24.0004 c 0,-1.6545 -1.3449,-3.0003 -3.0004,-3.0003 h -4.4997 c -1.6545,0 -3.0004,1.3458 -3.0004,3.0003 V 45.0006 H 33.0017 V 9.0013 c 0,-1.6547 -1.3459,-3.0005 -3.0003,-3.0005 h -4.4998 c -1.6545,0 -3.0004,1.3458 -3.0004,3.0005 V 45.0006 H 21.0011 V 31.5004 c 0,-1.6543 -1.346,-3.0002 -3.0006,-3.0002 h -4.4996 c -1.6545,0 -3.0004,1.3459 -3.0004,3.0002 v 13.5002 h -7.5 v -5.9999 h 3.0003 c 0.8283,0 1.5002,-0.6711 1.5002,-1.5003 0,-0.8282 -0.6719,-1.5002 -1.5002,-1.5002 H 3.0005 v -4.4998 c 0.8281,0 1.5001,-0.6709 1.5001,-1.5 0,-0.8282 -0.6711,-1.5002 -1.5001,-1.5002 v -4.4998 h 3.0003 c 0.8283,0 1.5002,-0.6711 1.5002,-1.5001 0,-0.8284 -0.6719,-1.5002 -1.5002,-1.5002 H 3.0005 v -4.4996 c 0.8281,0 1.5001,-0.6711 1.5001,-1.5003 0,-0.8283 -0.6711,-1.5003 -1.5001,-1.5003 V 9.0003 H 6.0008 C 6.8291,9.0003 7.501,8.3293 7.501,7.5 7.501,6.6719 6.8291,5.9999 6.0008,5.9999 H 3.0005 V 1.5002 C 3.0005,0.672 2.3295,0 1.5002,0 0.672,0 0,0.672 0,1.5002 V 44.9995 C 0,46.6541 1.3459,48 3.0005,48 h 43.4984 c 0.8282,0 1.5002,-0.6711 1.5002,-1.5002 0,-0.8284 -0.6692,-1.4992 -1.4974,-1.4992 z M 37.5014,24.0004 h 4.4997 V 45.0006 H 37.5014 V 24.0004 z M 25.5026,9.0013 h 4.4997 V 45.0006 H 25.5026 V 9.0013 z M 13.5028,31.5004 h 4.4996 V 45.0006 H 13.5028 V 31.5004 z"
   id="path3"
   style="fill:#000000"
   inkscape:connector-curvature="0" />
</svg>