<?xml version="1.0" encoding="UTF-8" standalone="no"?>
<!-- Created with Inkscape (http://www.inkscape.org/) -->

<svg
   xmlns:dc="http://purl.org/dc/elements/1.1/"
   xmlns:cc="http://creativecommons.org/ns#"
   xmlns:rdf="http://www.w3.org/1999/02/22-rdf-syntax-ns#"
   xmlns:svg="http://www.w3.org/2000/svg"
   xmlns="http://www.w3.org/2000/svg"
   xmlns:sodipodi="http://sodipodi.sourceforge.net/DTD/sodipodi-0.dtd"
   xmlns:inkscape="http://www.inkscape.org/namespaces/inkscape"
   width="48px"
   height="48px"
   id="svg2997"
   version="1.1"
   inkscape:version="0.48.4 r9939"
   sodipodi:docname="New document 2">
  <defs
     id="defs2999" />
  <sodipodi:namedview
     id="base"
     pagecolor="#ffffff"
     bordercolor="#666666"
     borderopacity="1.0"
     inkscape:pageopacity="0.0"
     inkscape:pageshadow="2"
     inkscape:zoom="7"
     inkscape:cx="24"
     inkscape:cy="24"
     inkscape:current-layer="layer1"
     showgrid="true"
     inkscape:grid-bbox="true"
     inkscape:document-units="px"
     inkscape:window-width="927"
     inkscape:window-height="710"
     inkscape:window-x="1855"
     inkscape:window-y="175"
     inkscape:window-maximized="0" />
  <metadata
     id="metadata3002">
    <rdf:RDF>
      <cc:Work
         rdf:about="">
        <dc:format>image/svg+xml</dc:format>
        <dc:type
           rdf:resource="http://purl.org/dc/dcmitype/StillImage" />
        <dc:title></dc:title>
      </cc:Work>
    </rdf:RDF>
  </metadata>
  <g
     id="layer1"
     inkscape:label="Layer 1"
     inkscape:groupmode="layer">
    <path
       inkscape:connector-curvature="0"
       d="m 9.000774,40.498306 c 2.897032,0 5.472,-1.381116 7.119484,-3.514724 l 12.467613,4.593916 C 29.112774,45.202154 32.232774,48 36.001548,48 c 4.134194,0 7.500387,-3.364537 7.500387,-7.500146 0,-4.135608 -3.364645,-7.500144 -7.500387,-7.500144 -3.42658,0 -6.317419,2.311667 -7.20929,5.454792 L 17.546323,34.311151 c 0.291096,-0.885648 0.455225,-1.830135 0.455225,-2.81178 0,-1.892068 -0.589935,-3.646334 -1.590193,-5.097126 l 13.854968,-8.313022 c 1.884387,1.79762 4.429935,2.909326 7.234064,2.909326 C 43.289806,20.998549 48,16.288507 48,10.499274 48,4.7100418 43.289806,0 37.500387,0 31.710968,0 27.000774,4.7100418 27.000774,10.499274 c 0,1.898262 0.514065,3.674205 1.396645,5.211704 L 14.24671,24.202058 C 12.766452,23.135254 10.957935,22.498887 9.000774,22.498887 4.0366452,22.498887 0,26.535402 0,31.499371 c 0,4.963968 4.0366452,8.998935 9.000774,8.998935 z M 36,35.998839 c 2.482065,0 4.499613,2.017483 4.499613,4.499467 0,2.481986 -2.019097,4.499469 -4.499613,4.499469 -2.480516,0 -4.499613,-2.019032 -4.499613,-4.499469 C 31.498887,38.01787 33.517935,35.998839 36,35.998839 z M 37.498839,3.0006766 c 4.134193,0 7.500387,3.3645368 7.500387,7.5001454 0,4.135609 -3.364645,7.500146 -7.500387,7.500146 -4.135742,0 -7.500387,-3.364537 -7.500387,-7.500146 0,-4.1356086 3.366193,-7.5001454 7.500387,-7.5001454 z M 9.000774,25.499565 c 3.307355,0 6,2.69101 6,5.999806 0,3.308797 -2.691097,5.999807 -6,5.999807 -3.308903,0 -5.9999998,-2.69101 -5.9999998,-5.999807 0,-3.308796 2.6910968,-5.999806 5.9999998,-5.999806 z"
       id="path3"
       style="fill:#000000" />
  </g>
</svg>
