<?xml version="1.0" encoding="UTF-8" standalone="no"?>
<!-- Generator: Adobe Illustrator 16.0.0, SVG Export Plug-In . SVG Version: 6.00 Build 0)  -->

<svg
   xmlns:dc="http://purl.org/dc/elements/1.1/"
   xmlns:cc="http://creativecommons.org/ns#"
   xmlns:rdf="http://www.w3.org/1999/02/22-rdf-syntax-ns#"
   xmlns:svg="http://www.w3.org/2000/svg"
   xmlns="http://www.w3.org/2000/svg"
   xmlns:sodipodi="http://sodipodi.sourceforge.net/DTD/sodipodi-0.dtd"
   xmlns:inkscape="http://www.inkscape.org/namespaces/inkscape"
   version="1.1"
   id="Layer_1"
   x="0px"
   y="0px"
   width="48"
   height="48"
   viewBox="0 0 48 48"
   enable-background="new 0 0 2600 3401"
   xml:space="preserve"
   inkscape:version="0.48.4 r9939"
   sodipodi:docname="table [Converted].svg"><metadata
   id="metadata15"><rdf:RDF><cc:Work
       rdf:about=""><dc:format>image/svg+xml</dc:format><dc:type
         rdf:resource="http://purl.org/dc/dcmitype/StillImage" /><dc:title></dc:title></cc:Work></rdf:RDF></metadata><defs
   id="defs13" /><sodipodi:namedview
   pagecolor="#ffffff"
   bordercolor="#666666"
   borderopacity="1"
   objecttolerance="10"
   gridtolerance="10"
   guidetolerance="10"
   inkscape:pageopacity="0"
   inkscape:pageshadow="2"
   inkscape:window-width="691"
   inkscape:window-height="511"
   id="namedview11"
   showgrid="false"
   inkscape:zoom="1.5701471"
   inkscape:cx="932.2317"
   inkscape:cy="849.38005"
   inkscape:window-x="0"
   inkscape:window-y="192"
   inkscape:window-maximized="0"
   inkscape:current-layer="Layer_1" />
<path
   d="m 1.4967,21.00049 h 17.96325 c 0.82705,0 1.4967,-0.672 1.4967,-1.49976 v -18 c 0,-0.82775 -0.66965,-1.49975 -1.4967,-1.49975 H 1.4967 C 0.67063,9.8e-4 0,0.67298 0,1.50073 v 18 c 0,0.82776 0.67063,1.49976 1.4967,1.49976 z m 1.49669,-18 H 17.96327 V 18.00098 H 2.99339 V 3.00049 z"
   id="path3"
   style="fill:#000000"
   inkscape:connector-curvature="0" />
<path
   d="M 47.90106,1.49976 C 47.90106,0.672 47.23141,0 46.40436,0 H 28.44111 c -0.82607,0 -1.4967,0.672 -1.4967,1.49976 v 18 c 0,0.82873 0.67063,1.49975 1.4967,1.49975 h 17.96325 c 0.82705,0 1.4967,-0.672 1.4967,-1.49975 v -18 z M 44.90767,18 H 29.9378 V 2.99951 H 44.90767 V 18 z"
   id="path5"
   style="fill:#000000"
   inkscape:connector-curvature="0" />
<path
   d="m 1.4967,48 h 18.71209 c 0.82704,0 1.4967,-0.672 1.4967,-1.49976 V 27.74988 c 0,-0.82874 -0.66966,-1.49976 -1.4967,-1.49976 H 1.4967 C 0.67063,26.25012 0,26.92212 0,27.74988 V 46.50024 C 0,47.328 0.67063,48 1.4967,48 z M 2.99339,29.24963 H 18.71112 V 44.99951 H 2.99339 V 29.24963 z"
   id="path7"
   style="fill:#000000"
   inkscape:connector-curvature="0" />
<path
   d="M 46.40436,27.00049 H 28.44111 c -0.82607,0 -1.4967,0.672 -1.4967,1.49975 v 18 c 0,0.82874 0.67063,1.49976 1.4967,1.49976 h 17.96325 c 0.82705,0 1.4967,-0.672 1.4967,-1.49976 v -18 c 0,-0.82873 -0.66965,-1.49975 -1.4967,-1.49975 z m -1.49669,18 H 29.9378 V 30 h 14.96987 v 15.00049 z"
   id="path9"
   style="fill:#000000"
   inkscape:connector-curvature="0" />
</svg>