<?xml version="1.0" encoding="UTF-8" standalone="no"?>
<!-- Generator: Adobe Illustrator 16.0.0, SVG Export Plug-In . SVG Version: 6.00 Build 0)  -->

<svg
   xmlns:dc="http://purl.org/dc/elements/1.1/"
   xmlns:cc="http://creativecommons.org/ns#"
   xmlns:rdf="http://www.w3.org/1999/02/22-rdf-syntax-ns#"
   xmlns:svg="http://www.w3.org/2000/svg"
   xmlns="http://www.w3.org/2000/svg"
   xmlns:sodipodi="http://sodipodi.sourceforge.net/DTD/sodipodi-0.dtd"
   xmlns:inkscape="http://www.inkscape.org/namespaces/inkscape"
   version="1.1"
   id="Layer_1"
   x="0px"
   y="0px"
   width="48"
   height="48"
   viewBox="0 0 48 48"
   enable-background="new 0 0 2600 3401"
   xml:space="preserve"
   inkscape:version="0.48.4 r9939"
   sodipodi:docname="team [Converted].svg"><metadata
   id="metadata11"><rdf:RDF><cc:Work
       rdf:about=""><dc:format>image/svg+xml</dc:format><dc:type
         rdf:resource="http://purl.org/dc/dcmitype/StillImage" /><dc:title></dc:title></cc:Work></rdf:RDF></metadata><defs
   id="defs9" /><sodipodi:namedview
   pagecolor="#ffffff"
   bordercolor="#666666"
   borderopacity="1"
   objecttolerance="10"
   gridtolerance="10"
   guidetolerance="10"
   inkscape:pageopacity="0"
   inkscape:pageshadow="2"
   inkscape:window-width="1091"
   inkscape:window-height="880"
   id="namedview7"
   showgrid="false"
   inkscape:zoom="6.2805885"
   inkscape:cx="30.175164"
   inkscape:cy="29.69717"
   inkscape:window-x="0"
   inkscape:window-y="192"
   inkscape:window-maximized="0"
   inkscape:current-layer="Layer_1" />
<path
   d="m 11.702591,37.992119 c 3.024959,0 5.485665,-3.081258 5.485665,-6.867835 0,-3.786576 -2.460706,-6.867834 -5.485665,-6.867834 -3.0249598,0 -5.4856648,3.081258 -5.4856648,6.867834 0,3.786577 2.460705,6.867835 5.4856648,6.867835 z m 0,-12.289609 c 2.180475,0 4.022525,2.482845 4.022525,5.421774 0,2.938931 -1.84205,5.421776 -4.022525,5.421776 -2.1804761,0 -4.022526,-2.482845 -4.022526,-5.421776 0,-2.938929 1.8420499,-5.421774 4.022526,-5.421774 z"
   id="path3"
   style="fill:#000000"
   inkscape:connector-curvature="0" />
<path
   d="m 1.5004686,39.209821 -1.46313914,4.337546 c -0.0740109,0.220768 -0.0366890363,0.463043 0.10057898,0.651549 0.13726811,0.18914 0.35803575,0.300472 0.59335256,0.300472 H 22.67392 c 0.234684,0 0.456085,-0.111332 0.593353,-0.300472 0.137268,-0.188506 0.175222,-0.430781 0.100579,-0.651549 l -1.463139,-4.337546 c -0.07654,-0.225829 -0.26062,-0.401051 -0.492774,-0.466206 l -5.120038,-1.446059 c -0.176488,-0.04997 -0.364362,-0.03226 -0.528198,0.04871 l -4.061112,2.007151 -4.0611128,-2.007151 c -0.1638358,-0.08097 -0.35171,-0.09868 -0.5281974,-0.04871 l -5.119406,1.446059 c -0.2327865,0.06516 -0.416865,0.239745 -0.4934062,0.466206 z m 5.7412243,-0.444699 4.1338581,2.043208 c 0.205586,0.101845 0.448494,0.101845 0.65408,0 l 4.133858,-2.043208 4.475447,1.263879 1.020339,3.024327 H 1.7465391 L 2.766878,40.029001 7.2416929,38.765122 z"
   id="path5"
   style="fill:#000000"
   inkscape:connector-curvature="0" />
<path
   inkscape:connector-curvature="0"
   style="fill:#000000"
   id="path2988"
   d="m 36.297128,37.992119 c 3.02496,0 5.485665,-3.081258 5.485665,-6.867835 0,-3.786576 -2.460705,-6.867834 -5.485665,-6.867834 -3.024959,0 -5.485664,3.081258 -5.485664,6.867834 0,3.786577 2.460705,6.867835 5.485664,6.867835 z m 0,-12.289609 c 2.180476,0 4.022526,2.482845 4.022526,5.421774 0,2.938931 -1.84205,5.421776 -4.022526,5.421776 -2.180475,0 -4.022525,-2.482845 -4.022525,-5.421776 0,-2.938929 1.84205,-5.421774 4.022525,-5.421774 z" /><path
   inkscape:connector-curvature="0"
   style="fill:#000000"
   id="path2990"
   d="m 26.095006,39.209821 -1.463139,4.337546 c -0.07401,0.220768 -0.03669,0.463043 0.100579,0.651549 0.137268,0.18914 0.358036,0.300472 0.593352,0.300472 h 21.94266 c 0.234684,0 0.456085,-0.111332 0.593353,-0.300472 0.137268,-0.188506 0.175222,-0.430781 0.100578,-0.651549 l -1.463138,-4.337546 c -0.07654,-0.225829 -0.26062,-0.401051 -0.492774,-0.466206 l -5.120038,-1.446059 c -0.176488,-0.04997 -0.364362,-0.03226 -0.528198,0.04871 l -4.061113,2.007151 -4.061112,-2.007151 c -0.163836,-0.08097 -0.35171,-0.09868 -0.528197,-0.04871 l -5.119407,1.446059 c -0.232786,0.06516 -0.416864,0.239745 -0.493406,0.466206 z m 5.741225,-0.444699 4.133858,2.043208 c 0.205586,0.101845 0.448493,0.101845 0.65408,0 l 4.133858,-2.043208 4.475447,1.263879 1.020339,3.024327 H 26.341077 l 1.020338,-3.024327 4.474816,-1.263879 z" /><path
   d="m 24.030288,16.87452 c 3.024959,0 5.485665,-3.081258 5.485665,-6.867835 0,-3.786576 -2.460706,-6.8678344 -5.485665,-6.8678344 -3.02496,0 -5.485665,3.0812584 -5.485665,6.8678344 0,3.786577 2.460705,6.867835 5.485665,6.867835 z m 0,-12.2896097 c 2.180475,0 4.022525,2.4828456 4.022525,5.4217747 0,2.93893 -1.84205,5.421776 -4.022525,5.421776 -2.180476,0 -4.022526,-2.482846 -4.022526,-5.421776 0,-2.9389291 1.84205,-5.4217747 4.022526,-5.4217747 z"
   id="path2992"
   style="fill:#000000"
   inkscape:connector-curvature="0" /><path
   d="m 13.828166,18.092221 -1.46314,4.337547 c -0.07401,0.220767 -0.03669,0.463042 0.100579,0.651549 0.137268,0.189139 0.358036,0.300472 0.593353,0.300472 h 21.942659 c 0.234684,0 0.456085,-0.111333 0.593353,-0.300472 0.137268,-0.188507 0.175222,-0.430782 0.100579,-0.651549 L 34.23241,18.092221 c -0.07654,-0.225828 -0.26062,-0.40105 -0.492774,-0.466205 l -5.120038,-1.44606 c -0.176488,-0.04997 -0.364362,-0.03226 -0.528198,0.04871 l -4.061112,2.007151 -4.061113,-2.007151 c -0.163836,-0.08097 -0.35171,-0.09868 -0.528197,-0.04871 l -5.119406,1.44606 c -0.232787,0.06516 -0.416865,0.239745 -0.493406,0.466205 z m 5.741224,-0.444698 4.133858,2.043208 c 0.205586,0.101844 0.448493,0.101844 0.65408,0 l 4.133858,-2.043208 4.475447,1.263879 1.020339,3.024327 H 14.074236 l 1.020339,-3.024327 4.474815,-1.263879 z"
   id="path2994"
   style="fill:#000000"
   inkscape:connector-curvature="0" /></svg>