<?xml version="1.0" encoding="UTF-8" standalone="no"?>
<!-- Created with Inkscape (http://www.inkscape.org/) -->

<svg
   xmlns:dc="http://purl.org/dc/elements/1.1/"
   xmlns:cc="http://creativecommons.org/ns#"
   xmlns:rdf="http://www.w3.org/1999/02/22-rdf-syntax-ns#"
   xmlns:svg="http://www.w3.org/2000/svg"
   xmlns="http://www.w3.org/2000/svg"
   xmlns:sodipodi="http://sodipodi.sourceforge.net/DTD/sodipodi-0.dtd"
   xmlns:inkscape="http://www.inkscape.org/namespaces/inkscape"
   width="48px"
   height="48px"
   id="svg3006"
   version="1.1"
   inkscape:version="0.48.4 r9939"
   sodipodi:docname="New document 2">
  <defs
     id="defs3008" />
  <sodipodi:namedview
     id="base"
     pagecolor="#ffffff"
     bordercolor="#666666"
     borderopacity="1.0"
     inkscape:pageopacity="0.0"
     inkscape:pageshadow="2"
     inkscape:zoom="7"
     inkscape:cx="24"
     inkscape:cy="24"
     inkscape:current-layer="layer1"
     showgrid="true"
     inkscape:grid-bbox="true"
     inkscape:document-units="px"
     inkscape:window-width="1271"
     inkscape:window-height="871"
     inkscape:window-x="1730"
     inkscape:window-y="50"
     inkscape:window-maximized="0" />
  <metadata
     id="metadata3011">
    <rdf:RDF>
      <cc:Work
         rdf:about="">
        <dc:format>image/svg+xml</dc:format>
        <dc:type
           rdf:resource="http://purl.org/dc/dcmitype/StillImage" />
        <dc:title></dc:title>
      </cc:Work>
    </rdf:RDF>
  </metadata>
  <g
     id="layer1"
     inkscape:label="Layer 1"
     inkscape:groupmode="layer">
    <path
       inkscape:connector-curvature="0"
       d="m 1.500387,20.999226 h 18 c 0.828387,0 1.500387,-0.672 1.500387,-1.500387 V 1.4988387 C 21.000774,0.6704516 20.330323,0 19.500387,0 h -18 C 0.672,0 0,0.6704516 0,1.4988387 V 19.498839 c 0,0.828387 0.6735484,1.500387 1.500387,1.500387 z M 3.000774,2.9992258 H 18 V 18 H 3.000774 V 2.9992258 z"
       id="path3"
       style="fill:#000000" />
    <path
       inkscape:connector-curvature="0"
       d="M 48,1.4988387 C 48,0.6704516 47.329548,0 46.499613,0 h -18 C 27.671226,0 26.999226,0.6704516 26.999226,1.4988387 V 19.498839 c 0,0.828387 0.672,1.500387 1.500387,1.500387 h 18 C 47.329548,20.999226 48,20.327226 48,19.498839 V 1.4988387 z M 44.999226,17.998452 H 29.998452 V 2.9976774 H 44.999226 V 17.998452 z"
       id="path5"
       style="fill:#000000" />
    <path
       inkscape:connector-curvature="0"
       d="m 1.500387,47.998452 h 18.749419 c 0.828388,0 1.500388,-0.672 1.500388,-1.500387 v -18.74942 c 0,-0.828387 -0.670452,-1.498839 -1.500388,-1.498839 H 1.500387 C 0.672,26.249806 0,26.921806 0,27.748645 v 18.74942 c 0,0.828387 0.6735484,1.500387 1.500387,1.500387 z M 3.000774,29.249032 H 18.750968 V 44.999226 H 3.000774 V 29.249032 z"
       id="path7"
       style="fill:#000000" />
    <path
       inkscape:connector-curvature="0"
       d="m 46.499613,26.999226 h -18 c -0.828387,0 -1.500387,0.672 -1.500387,1.500387 v 18 C 26.999226,47.328 27.671226,48 28.499613,48 h 18 C 47.329548,48 48,47.328 48,46.499613 v -18 c 0,-0.828387 -0.670452,-1.500387 -1.500387,-1.500387 z m -1.500387,18 H 29.998452 V 29.998452 h 15.000774 v 15.000774 z"
       id="path9"
       style="fill:#000000" />
  </g>
</svg>
