<?xml version="1.0" encoding="UTF-8" standalone="no"?>
<!-- Generator: Adobe Illustrator 16.0.0, SVG Export Plug-In . SVG Version: 6.00 Build 0)  -->

<svg
   xmlns:dc="http://purl.org/dc/elements/1.1/"
   xmlns:cc="http://creativecommons.org/ns#"
   xmlns:rdf="http://www.w3.org/1999/02/22-rdf-syntax-ns#"
   xmlns:svg="http://www.w3.org/2000/svg"
   xmlns="http://www.w3.org/2000/svg"
   xmlns:sodipodi="http://sodipodi.sourceforge.net/DTD/sodipodi-0.dtd"
   xmlns:inkscape="http://www.inkscape.org/namespaces/inkscape"
   version="1.1"
   id="Layer_1"
   x="0px"
   y="0px"
   width="47.999897"
   height="48"
   viewBox="0 0 47.999897 48"
   enable-background="new 0 0 2600 3401"
   xml:space="preserve"
   inkscape:version="0.48.4 r9939"
   sodipodi:docname="dons [Converted].svg"><metadata
   id="metadata11"><rdf:RDF><cc:Work
       rdf:about=""><dc:format>image/svg+xml</dc:format><dc:type
         rdf:resource="http://purl.org/dc/dcmitype/StillImage" /><dc:title></dc:title></cc:Work></rdf:RDF></metadata><defs
   id="defs9" /><sodipodi:namedview
   pagecolor="#ffffff"
   bordercolor="#666666"
   borderopacity="1"
   objecttolerance="10"
   gridtolerance="10"
   guidetolerance="10"
   inkscape:pageopacity="0"
   inkscape:pageshadow="2"
   inkscape:window-width="759"
   inkscape:window-height="565"
   id="namedview7"
   showgrid="false"
   fit-margin-top="0"
   fit-margin-left="0"
   fit-margin-right="0"
   fit-margin-bottom="0"
   inkscape:zoom="3.1402943"
   inkscape:cx="36.818061"
   inkscape:cy="44.432911"
   inkscape:window-x="437"
   inkscape:window-y="277"
   inkscape:window-maximized="0"
   inkscape:current-layer="Layer_1" />
<path
   d="m 23.9996,32.023867 c 6.2036,0 11.2499,-6.35919 11.2499,-14.17528 0,-7.81609 -5.0463,-14.1743897 -11.2499,-14.1743897 -6.2037,0 -11.25,6.3591897 -11.25,14.1743897 0,7.81698 5.0463,14.17528 11.25,14.17528 z m 0,-25.3647397 c 4.472,0 8.2498,5.1244997 8.2498,11.1903497 0,6.06585 -3.7778,11.19035 -8.2498,11.19035 -4.4721,0 -8.2499,-5.1245 -8.2499,-11.19035 0,-6.06585 3.7778,-11.1903497 8.2499,-11.1903497 z"
   id="path3"
   style="fill:#000000"
   inkscape:connector-curvature="0" />
<path
   d="m 3.0766,34.535897 -2.99999999,8.9521 c -0.152,0.45512 -0.075,0.95557 0.2062,1.34402 0.2809,0.38934 0.73429999,0.62045 1.21689999,0.62045 h 45.0006 c 0.4817,0 0.9351,-0.23022 1.216,-0.62045 0.2818,-0.38934 0.3591,-0.8889 0.2071,-1.34402 l -3,-8.9521 c -0.1574,-0.46756 -0.5352,-0.82668 -1.0107,-0.96268 l -10.5006,-2.98404 c -0.3618,-0.10311 -0.7467,-0.0667 -1.0836,0.0996 l -8.3289,4.14227 -8.329,-4.14227 c -0.336,-0.16711 -0.7218,-0.20356 -1.0836,-0.0996 l -10.4997,2.98404 c -0.4755,0.136 -0.8542,0.49601 -1.0107,0.96268 z m 11.7744,-0.91735 8.4774,4.21694 c 0.4223,0.20978 0.92,0.20978 1.3423,0 l 8.4774,-4.21694 9.1788,2.60803 2.0925,6.24274 H 3.5807 l 2.0915,-6.24274 9.1788,-2.60803 z"
   id="path5"
   style="fill:#000000"
   inkscape:connector-curvature="0" />
</svg>