<?xml version="1.0" encoding="UTF-8" standalone="no"?>
<!-- Generator: Adobe Illustrator 16.0.0, SVG Export Plug-In . SVG Version: 6.00 Build 0)  -->

<svg
   xmlns:dc="http://purl.org/dc/elements/1.1/"
   xmlns:cc="http://creativecommons.org/ns#"
   xmlns:rdf="http://www.w3.org/1999/02/22-rdf-syntax-ns#"
   xmlns:svg="http://www.w3.org/2000/svg"
   xmlns="http://www.w3.org/2000/svg"
   xmlns:sodipodi="http://sodipodi.sourceforge.net/DTD/sodipodi-0.dtd"
   xmlns:inkscape="http://www.inkscape.org/namespaces/inkscape"
   version="1.1"
   id="Layer_1"
   x="0px"
   y="0px"
   width="48"
   height="48"
   viewBox="0 0 48 48"
   enable-background="new 0 0 2600 3401"
   xml:space="preserve"
   inkscape:version="0.48.4 r9939"
   sodipodi:docname="import [Converted].svg"><metadata
   id="metadata11"><rdf:RDF><cc:Work
       rdf:about=""><dc:format>image/svg+xml</dc:format><dc:type
         rdf:resource="http://purl.org/dc/dcmitype/StillImage" /><dc:title></dc:title></cc:Work></rdf:RDF></metadata><defs
   id="defs9" /><sodipodi:namedview
   pagecolor="#ffffff"
   bordercolor="#666666"
   borderopacity="1"
   objecttolerance="10"
   gridtolerance="10"
   guidetolerance="10"
   inkscape:pageopacity="0"
   inkscape:pageshadow="2"
   inkscape:window-width="996"
   inkscape:window-height="488"
   id="namedview7"
   showgrid="false"
   inkscape:zoom="1.5701471"
   inkscape:cx="1689.1504"
   inkscape:cy="1229.6092"
   inkscape:window-x="0"
   inkscape:window-y="192"
   inkscape:window-maximized="0"
   inkscape:current-layer="Layer_1" />
<path
   d="m 23.9991,6.4615 c -0.828,0 -1.4991,0.6647 -1.4991,1.4834 v 20.1554 l -3.4412,-3.4034 c -0.2926,-0.2889 -0.6766,-0.4347 -1.0606,-0.4347 -0.384,0 -0.768,0.1449 -1.0607,0.4347 -0.5861,0.5797 -0.5861,1.5194 0,2.0982 l 6,5.9344 c 0.5853,0.5788 1.536,0.5788 2.1213,0 l 6,-5.9344 c 0.5852,-0.5788 0.5852,-1.5185 0,-2.0982 -0.5853,-0.5787 -1.5351,-0.5787 -2.1203,0 l -3.4394,3.4016 V 7.944 C 25.5,7.1252 24.828,6.4615 23.9991,6.4615 z"
   id="path3"
   style="fill:#000000"
   inkscape:connector-curvature="0" />
<path
   d="M 46.5,18.3295 H 30 c -0.828,0 -1.5,0.6637 -1.5,1.4834 0,0.8197 0.672,1.4834 1.5,1.4834 h 15 v 23.736 H 3 v -23.736 h 15 c 0.828,0 1.5,-0.6646 1.5,-1.4834 0,-0.8187 -0.672,-1.4834 -1.5,-1.4834 H 1.5 c -0.828,0 -1.5,0.6637 -1.5,1.4834 V 46.5166 C 0,47.3363 0.672,48 1.5,48 h 45 C 47.328,48 48,47.3363 48,46.5166 V 19.8129 c 0,-0.8197 -0.672,-1.4834 -1.5,-1.4834 z"
   id="path5"
   style="fill:#000000"
   inkscape:connector-curvature="0" />
</svg>