<?xml version="1.0" standalone="no"?>
<!DOCTYPE svg PUBLIC "-//W3C//DTD SVG 1.1//EN" "http://www.w3.org/Graphics/SVG/1.1/DTD/svg11.dtd" >
<svg xmlns="http://www.w3.org/2000/svg">
<metadata></metadata>
<defs>
<font id="nexaslabregular" horiz-adv-x="1660" >
<font-face units-per-em="2048" ascent="1434" descent="-614" />
<missing-glyph horiz-adv-x="497" />
<glyph horiz-adv-x="0" />
<glyph unicode="&#xd;" horiz-adv-x="491" />
<glyph unicode=" "  horiz-adv-x="497" />
<glyph unicode="&#x09;" horiz-adv-x="497" />
<glyph unicode="&#xa0;" horiz-adv-x="497" />
<glyph unicode="!" horiz-adv-x="600" d="M164 125q0 68 43 102.5t96 34.5t96 -33.5t43 -103.5t-43 -103.5t-96 -33.5t-96 33.5t-43 103.5zM193 348v1086h215v-1086h-215z" />
<glyph unicode="&#x22;" horiz-adv-x="806" d="M141 893v541h185v-541h-185zM481 893v541h185v-541h-185z" />
<glyph unicode="#" horiz-adv-x="1382" d="M72 301v191h207l112 436h-172v186h215l78 320h207l-78 -320h303l80 320h207l-80 -320h160v-186h-205l-115 -436h174v-191h-217l-74 -301h-206l73 301h-305l-74 -301h-204l73 301h-159zM477 479h309l117 461h-307z" />
<glyph unicode="$" horiz-adv-x="1320" d="M102 1061q-2 104 40 177t111 120t155 71.5t170 30.5v193h200v-197q102 -10 195.5 -46t187.5 -112q0 -82 -1 -144t-1 -144h-190l-11 194q-70 39 -152.5 54.5t-150.5 15.5q-61 0 -122.5 -12.5t-109.5 -39t-78 -68.5t-30 -99q0 -53 27 -89t74 -60.5t110.5 -40t137.5 -27.5 q111 -16 217 -39t188 -69t132 -123t50 -199q0 -104 -41 -180t-106.5 -128.5t-151.5 -82t-176 -40.5v-194h-198v188q-137 8 -250 50t-224 141v282h195l12 -180q33 -23 75 -40t86 -28.5t90 -17.5t87 -6q66 0 134.5 10.5t125 36t92 71.5t35.5 118q0 70 -45 112.5t-108.5 67 t-131 36t-110.5 17.5q-104 14 -201.5 39t-172 71t-120 120.5t-45.5 189.5z" />
<glyph unicode="%" horiz-adv-x="1589" d="M70 1135q0 57 20.5 113.5t61.5 101.5t102 71.5t141 26.5q82 0 143.5 -26.5t103.5 -70.5t62.5 -100.5t20.5 -115.5t-20.5 -115.5t-61.5 -102t-102.5 -72t-143.5 -26.5t-143 26.5t-102 72t-61.5 101.5t-20.5 116zM205 0l930 1438h227l-926 -1438h-231zM238 1137 q0 -59 40.5 -108.5t120.5 -49.5q78 0 117 49t37 109q0 57 -43 104t-117 47q-78 0 -116.5 -47t-38.5 -104zM866 297q0 57 20.5 114.5t61.5 101.5t102.5 71.5t141.5 27.5q82 0 143.5 -26.5t103.5 -71.5t62.5 -101.5t20.5 -115.5t-20.5 -115.5t-61.5 -101.5t-102.5 -71.5 t-143.5 -26.5t-143.5 26.5t-102.5 71.5t-61.5 101.5t-20.5 115.5zM1034 299q0 -59 41 -107.5t121 -48.5q78 0 117 49.5t37 108.5q0 57 -43 104.5t-117 47.5q-78 0 -117 -47.5t-39 -106.5z" />
<glyph unicode="&#x26;" horiz-adv-x="1429" d="M109 418q0 51 18 101t51 92t77 74t95 48q-102 33 -158.5 120t-56.5 183q0 104 44 183t118 130.5t170 77t201 25.5q92 0 182 -18.5t161.5 -62.5t115.5 -119.5t44 -188.5l-204 6q0 59 -26 98t-68 61.5t-96 32t-113 9.5q-86 0 -147.5 -20.5t-99.5 -53.5t-54.5 -74t-16.5 -82 q0 -63 34 -105t82 -66.5t103.5 -35t100.5 -10.5h651v-176h-123v-241q0 -41 7 -78t23.5 -67t44 -46t68.5 -16v-203q-41 -2 -82 5t-75.5 26.5t-62 55.5t-42.5 91q-37 -59 -84 -96t-101 -58.5t-111.5 -29.5t-114.5 -8q-121 0 -223.5 23.5t-176.5 74.5t-114.5 134t-40.5 204z M322 424q0 -61 25.5 -108.5t70.5 -78t106.5 -47t134.5 -16.5q43 0 101.5 12.5t110 41t87 73.5t35.5 111v239h-342q-84 0 -145.5 -20.5t-102.5 -53t-61 -73.5t-20 -80z" />
<glyph unicode="'" horiz-adv-x="468" d="M141 893v543h187v-543h-187z" />
<glyph unicode="(" horiz-adv-x="710" d="M86 588q0 131 29.5 261t89 250t148.5 223t206 183l103 -141q-90 -68 -158 -156t-113 -188t-68.5 -207.5t-23.5 -214.5q0 -233 89 -432t274 -340l-109 -152q-117 76 -205 179.5t-146.5 222.5t-87 250t-28.5 262z" />
<glyph unicode=")" horiz-adv-x="708" d="M49 1370l103 141q117 -78 205.5 -182t147 -223t88.5 -249t30 -261t-29 -262t-86 -251t-145.5 -223.5t-204.5 -181.5l-107 150q184 141 272.5 341t86.5 435q0 106 -22.5 214t-69 207t-114 187t-155.5 158z" />
<glyph unicode="*" horiz-adv-x="782" d="M92 1184l45 155l180 -67l-8 186h160l-14 -188l190 67l45 -151l-190 -43l135 -156l-127 -92l-119 168l-115 -168l-131 94l129 154z" />
<glyph unicode="+" horiz-adv-x="1011" d="M86 614v189h317v317h199v-317h324v-189h-324v-325h-199v325h-317z" />
<glyph unicode="," horiz-adv-x="481" d="M117 104q0 61 38 92t85 30t87 -32.5t42 -93.5q0 -10 -29 -95t-64 -206h-131l54 205q-33 8 -56.5 32.5t-25.5 67.5z" />
<glyph unicode="-" horiz-adv-x="1007" d="M133 492v192h741v-192h-741z" />
<glyph unicode="." horiz-adv-x="485" d="M115 104q0 66 40 96.5t87 30.5q49 0 89 -31.5t40 -97.5q0 -63 -41 -95t-88 -32q-47 2 -87 34t-40 95z" />
<glyph unicode="/" horiz-adv-x="1005" d="M45 -168l707 1733h211l-711 -1733h-207z" />
<glyph unicode="0" horiz-adv-x="1419" d="M115 590v254q0 154 52 268.5t136 191t190.5 114.5t215.5 38t215 -38t191 -114.5t137.5 -191.5t52.5 -268v-254q0 -154 -52.5 -268.5t-137.5 -191.5t-191.5 -115t-214.5 -38q-109 0 -215.5 38t-190.5 115t-136 191.5t-52 268.5zM328 590q0 -102 33.5 -180t88 -129.5 t122 -77t137.5 -25.5q68 0 135 25.5t122.5 78t89.5 129t34 181.5v254q0 102 -34 179t-88.5 127t-123 75.5t-135.5 25.5q-70 0 -137.5 -25.5t-122 -76.5t-88 -128t-33.5 -179v-254z" />
<glyph unicode="1" horiz-adv-x="862" d="M96 0v178h258v981l-243 -67v198l458 144v-1256h250v-178h-723z" />
<glyph unicode="2" horiz-adv-x="1359" d="M111 0v358q0 121 50 202t131 129t184.5 68.5t207.5 20.5q49 0 107.5 10.5t109.5 37t86 71.5t35 115q0 72 -25.5 120t-69.5 76.5t-103.5 41t-125.5 12.5q-61 0 -125.5 -8.5t-118 -33t-88 -70.5t-36.5 -122h-215q8 123 57 205t128 131t181.5 68.5t216.5 19.5 q100 0 196.5 -22.5t172.5 -74.5t122 -135t46 -204q0 -123 -45 -207t-122 -136t-176 -75t-208 -23q-53 0 -115.5 -8t-116 -32.5t-89 -67.5t-35.5 -111v-157h702l12 202h195v-401h-1126z" />
<glyph unicode="3" horiz-adv-x="1327" d="M94 399h215q2 -78 42 -122t95.5 -65.5t117 -26.5t108.5 -5q86 0 150.5 20.5t106.5 54.5t63.5 79t21.5 94q0 113 -44 174.5t-114 88t-155 28.5t-166 -2l-31 51q8 12 34.5 48t62.5 84t77 103.5t77 103.5t62.5 84t36.5 48l-500 -2l-8 -205h-199v402h1035v-86l-373 -469 q94 -12 171 -43t132 -84.5t86 -131t31 -182.5q0 -102 -40 -186t-114 -143.5t-177 -92t-230 -32.5q-92 0 -193.5 18t-186.5 66.5t-139.5 128t-54.5 202.5zM500 764l4 6v-2z" />
<glyph unicode="4" horiz-adv-x="1370" d="M41 444l780 990h271v-945h208v-200h-208v-289h-218v289h-821zM307 489h567v699z" />
<glyph unicode="5" horiz-adv-x="1325" d="M109 420h213q0 -70 33.5 -116t86 -72.5t114.5 -37t120 -10.5q70 0 133 17.5t111.5 52.5t77 85t28.5 118q0 61 -25.5 108t-71.5 78t-109.5 47.5t-139.5 16.5h-549v727h1026v-199h-813v-324h336q123 0 225.5 -28.5t177 -86t115.5 -142.5t41 -197q0 -111 -42 -199 t-116.5 -148.5t-177 -92t-221.5 -31.5q-111 0 -214 21.5t-183 71.5t-128 134t-48 207z" />
<glyph unicode="6" horiz-adv-x="1402" d="M131 446v564q0 115 49 198.5t131 139t184.5 83t211.5 27.5q113 0 216 -23.5t182 -72.5t127 -126t50 -181h-213q-2 55 -32.5 97t-81 69.5t-114 41t-130.5 13.5q-72 0 -137.5 -17.5t-116.5 -52.5t-82 -85t-31 -113v-260q33 43 77 72.5t95 48t104.5 26.5t102.5 8 q106 0 209.5 -24.5t186.5 -79t134.5 -143.5t51.5 -218q0 -121 -51.5 -208t-134.5 -143t-187.5 -84t-210.5 -28q-109 0 -214.5 28t-188 86t-135 147.5t-52.5 209.5zM348 438q0 -72 33 -123t86 -82.5t119.5 -47t134.5 -15.5q70 0 135.5 15.5t117.5 48t84 83t32 121.5 q0 74 -30 125t-81 85t-116.5 49.5t-135.5 15.5q-72 0 -139.5 -16.5t-120.5 -50.5t-86 -86t-33 -122z" />
<glyph unicode="7" horiz-adv-x="1148" d="M76 1032v402h1046l17 -125l-678 -1309h-242l649 1237h-594l-6 -205h-192z" />
<glyph unicode="8" horiz-adv-x="1427" d="M104 420q0 104 67 193t183 128q-104 47 -160.5 119t-56.5 182q0 111 49.5 190t129 129t183 74.5t212.5 24.5t213 -24.5t186 -74.5t133 -129t51 -190q0 -94 -59 -176t-166 -121q57 -18 103.5 -54t79 -80t51 -95t20.5 -102q0 -131 -53 -217t-139.5 -136.5t-197 -71 t-222.5 -20.5q-111 0 -220.5 20.5t-195.5 71t-139.5 137.5t-51.5 222zM317 422q0 -66 33 -114t86 -79.5t124 -47t149 -15.5q76 0 147.5 15.5t127.5 46t89 78.5t33 114q0 63 -37 108t-94 74t-127.5 42t-136.5 13q-66 2 -135.5 -10t-127 -39.5t-94.5 -74t-37 -111.5zM352 1049 q2 -57 35 -100.5t85 -71t114.5 -41t124.5 -13.5q63 0 127.5 13.5t117 41t86 71t33.5 100.5t-31.5 101t-84 73.5t-118 44t-132.5 14.5q-72 0 -137.5 -16.5t-114.5 -47t-77 -73.5t-28 -96z" />
<glyph unicode="9" horiz-adv-x="1402" d="M98 999q0 119 51.5 207t134.5 144.5t187 84t211 27.5q106 0 212.5 -27.5t189.5 -86t135.5 -147.5t52.5 -210v-563q0 -115 -49 -199t-131 -139t-185.5 -82.5t-210.5 -27.5q-115 0 -218 23.5t-183 72.5t-128 126t-50 181h215q0 -53 31.5 -93t82 -66.5t115 -40t131.5 -13.5 q68 0 133.5 16.5t117.5 49t84 82t32 112.5v268q-31 -47 -75 -78.5t-94 -50t-104.5 -26.5t-105.5 -8q-106 0 -209.5 24.5t-186.5 78.5t-134.5 143t-51.5 218zM315 999q0 -72 31 -123t82 -84.5t116.5 -50t135.5 -16.5t138.5 16.5t120.5 50t84 86t32 121.5q0 72 -32 123.5 t-84 84t-119.5 48t-137.5 15.5q-68 0 -133.5 -16.5t-117.5 -48t-84 -83t-32 -123.5z" />
<glyph unicode=":" horiz-adv-x="514" d="M133 109q0 63 39 93.5t86 30.5t85 -30.5t38 -93.5q0 -61 -38 -92t-85 -31t-86 30.5t-39 92.5zM133 711q0 61 39 92t86 31t85 -31t38 -92q0 -63 -38 -94t-85 -31t-86 30.5t-39 94.5z" />
<glyph unicode=";" horiz-adv-x="524" d="M139 104q0 61 38 92t85 30t87 -32.5t40 -93.5q2 -10 -27.5 -95t-66.5 -206h-127l53 203q-33 8 -57.5 32.5t-24.5 69.5zM143 707q0 63 39 93.5t86 30.5t85 -30.5t38 -89.5q0 -63 -38 -94t-85 -31t-86 30.5t-39 90.5z" />
<glyph unicode="&#x3c;" horiz-adv-x="770" d="M76 623v45l456 440l130 -137l-345 -326l349 -321l-134 -142z" />
<glyph unicode="=" horiz-adv-x="1140" d="M139 324v188h862v-188h-862zM139 770v186h862v-186h-862z" />
<glyph unicode="&#x3e;" horiz-adv-x="774" d="M106 315l349 330l-346 332l129 131l460 -440v-45l-460 -441z" />
<glyph unicode="?" horiz-adv-x="1245" d="M66 1016q0 115 48 195.5t126.5 133t179 77t205.5 24.5q104 0 204.5 -21.5t177 -71.5t124 -132t45.5 -201q0 -111 -39 -179.5t-94.5 -109.5t-116 -64.5t-103.5 -48.5q-41 -18 -67.5 -36.5t-42 -45t-21.5 -65.5t-8 -96h-215q2 100 20.5 167.5t52 113.5t81 76t106.5 52 q37 16 77 35t74.5 44.5t57.5 64.5t23 98q0 76 -33 121t-84 69.5t-112.5 32.5t-117.5 8q-55 0 -115.5 -14t-110.5 -44t-83 -75t-33 -108h-206zM449 129q0 68 41.5 102.5t95.5 34.5q51 0 94 -33.5t43 -103.5q0 -68 -43 -101.5t-94 -33.5q-53 0 -95 33.5t-42 101.5z" />
<glyph unicode="@" horiz-adv-x="1878" d="M94 539q0 190 66.5 340.5t182.5 257t269.5 163t325.5 56.5q186 0 340 -54.5t263.5 -158t168.5 -251t59 -333.5q0 -147 -41.5 -247.5t-99.5 -186.5q-51 -49 -113.5 -68.5t-117 -8.5t-90 51t-33.5 110q-27 -47 -69 -81t-90 -56.5t-98 -32.5t-91 -10q-106 0 -201.5 37.5 t-166.5 105.5t-111.5 160t-40.5 203q0 123 39.5 217t110.5 159.5t166 99t204 33.5q47 0 96 -12t92 -35.5t79 -55.5t56 -69l13 119l159 -16v-733q0 -23 13.5 -33t31 -9t36 14t30.5 36q29 66 48 142.5t19 168.5q0 326 -173 478.5t-488 152.5q-131 0 -250 -45t-210 -130 t-145 -206t-54 -272q0 -160 54 -278t144 -195.5t207 -115.5t244 -38q143 0 299 76l80 -144q-98 -59 -193.5 -80.5t-187.5 -21.5q-166 0 -317.5 50t-265.5 150.5t-181.5 250t-67.5 346.5zM598 537q0 -164 90 -246t238 -82q82 0 142 26.5t101 72.5t61.5 106.5t20.5 128.5 q0 63 -20.5 122.5t-60.5 104.5t-100 71.5t-142 26.5q-154 0 -242 -89t-88 -242z" />
<glyph unicode="A" d="M23 0v199h133l477 1040h-152v195h486l542 -1235h133v-199h-532v199h172q-29 55 -49.5 109t-42.5 102h-709q-18 -45 -43.5 -99.5t-50.5 -111.5h166v-199h-530zM565 602h539q-27 63 -54.5 130t-58 142.5t-67.5 160.5t-80 188q-47 -104 -86 -191.5t-73 -162t-63.5 -140 t-56.5 -127.5z" />
<glyph unicode="B" horiz-adv-x="1517" d="M109 0v199h172v1040h-168v195h774q100 0 189 -22.5t154.5 -71t103.5 -126t38 -188.5q0 -92 -49 -167t-152 -122q63 -16 109.5 -53t77.5 -85t45 -99t14 -94q0 -125 -44 -204t-117.5 -124t-169 -61.5t-199.5 -16.5h-778zM494 197h393q49 0 103 8t100.5 31.5t77 65.5 t30.5 112q0 59 -28.5 102t-73.5 70.5t-99.5 41t-103.5 13.5h-399v-444zM494 836h399q127 0 197.5 55t70.5 133q0 119 -75.5 167t-198.5 48h-393v-403z" />
<glyph unicode="C" horiz-adv-x="1429" d="M94 709v12q0 133 43 262q45 135 139.5 240.5t237 170t332.5 64.5q125 0 243.5 -42t223.5 -122q0 -78 -2 -154.5t-4 -154.5h-193l-8 211q-61 33 -126 45t-134 12q-139 0 -240.5 -47t-168 -122.5t-98.5 -173.5q-30 -93 -30 -187v-12q2 -96 32 -191.5t94.5 -170.5 t165.5 -121t245 -46q100 0 204.5 40t178.5 114l153 -148q-111 -109 -249 -160t-287 -51q-195 0 -336 61.5t-233.5 163t-137.5 233.5t-45 274z" />
<glyph unicode="D" horiz-adv-x="1605" d="M109 0v199h172v1042h-168v195h675q184 0 319.5 -55.5t224.5 -150.5t132 -224t43 -275q0 -145 -42 -278.5t-130 -233.5t-223 -159.5t-324 -59.5h-679zM498 197h290q135 0 229.5 47t155 123.5t89 172t30.5 193.5q0 96 -29.5 187.5t-93 162t-157.5 113.5t-224 43h-290v-1042 z" />
<glyph unicode="E" horiz-adv-x="1419" d="M109 0v199h172v1040h-168v195h1175v-412h-192l-9 215h-595v-406h608v-198h-608v-430h626l8 217h193v-420h-1210z" />
<glyph unicode="F" horiz-adv-x="1298" d="M106 0v199h170v1040h-167v195h1124v-412h-193l-8 219h-538v-407h571v-201h-571v-434h194v-199h-582z" />
<glyph unicode="G" horiz-adv-x="1495" d="M96 702q0 156 49.5 293.5t144.5 240.5t234.5 162.5t319.5 59.5q141 0 266 -37t240 -129q0 -76 -1 -150.5t-3 -156.5h-195l-4 207q-66 33 -149 49t-154 16q-129 0 -228.5 -45t-167 -120.5t-102.5 -177t-35 -212.5q0 -100 31 -195t96.5 -169t168 -119t243.5 -45 q106 0 181 27.5t157 101.5v264h-426v183h614v-529q-193 -250 -530 -250q-197 0 -338 60.5t-232.5 162t-135.5 233.5t-44 275z" />
<glyph unicode="H" horiz-adv-x="1724" d="M106 1235v199h547v-199h-161v-401h739v401h-162v199h549v-199h-170v-1036h168v-199h-547v199h162v442h-739v-442h161v-199h-544v199h170v1036h-173z" />
<glyph unicode="I" horiz-adv-x="782" d="M104 0v199h177v1036h-172v199h563v-199h-174v-1036h178v-199h-572z" />
<glyph unicode="J" horiz-adv-x="1392" d="M45 578h217q0 -193 82 -297.5t268 -104.5q94 0 166 30t120 85t72.5 131t24.5 168v647h-444v197h657v-844v-13q0 -129 -38 -238q-40 -114 -116.5 -195t-188 -126t-253.5 -45q-131 0 -236.5 41t-179 120t-112.5 190.5t-39 253.5z" />
<glyph unicode="K" horiz-adv-x="1476" d="M109 1235v199h526v-199h-141v-475l514 475h-156v199h559v-199h-133l-475 -457l407 -583h230v-195h-473v182l-318 465l-155 -147v-305h184v-195h-567v195h170v1040h-172z" />
<glyph unicode="L" horiz-adv-x="1312" d="M104 1235v199h551v-199h-163v-1038h565l8 219h190v-416h-1138v195h159v1040h-172z" />
<glyph unicode="M" horiz-adv-x="2031" d="M104 0v195h177v1040h-175v199h431l483 -686l477 686h426v-199h-172v-1040h170v-195h-547v195h164v923l-500 -665h-47l-495 671v-929h161v-195h-553z" />
<glyph unicode="N" horiz-adv-x="1744" d="M102 1235v199h330l842 -1031v832h-172v199h549v-199h-164v-1235h-146l-852 1030v-835h173v-195h-551v195h163v1040h-172z" />
<glyph unicode="O" horiz-adv-x="1650" d="M94 711q0 164 53.5 301t150.5 237.5t233 155.5t300 55q182 -2 318.5 -65.5t226.5 -168t135 -238.5t45 -277q0 -139 -45 -272.5t-135 -238t-226 -168t-323 -63.5q-186 0 -324 62.5t-228.5 167t-135.5 237.5t-45 275zM311 711q0 -102 30 -199.5t94.5 -173.5t161.5 -121 t232 -45t231.5 47t159 124t92 173.5t29.5 194.5q0 100 -29.5 198.5t-92 176t-158.5 127t-230 51.5q-127 0 -224 -43t-162.5 -119t-99.5 -176.5t-34 -214.5z" />
<glyph unicode="P" horiz-adv-x="1484" d="M104 1237v197h816q170 0 282.5 -70t168.5 -175.5t56 -228t-56 -228t-168.5 -176.5t-282.5 -71h-431v-290h177v-195h-551v195h161v1042h-172zM489 676h431q98 0 162.5 42t97 103.5t32.5 135t-32.5 135t-97 103.5t-162.5 42h-431v-561z" />
<glyph unicode="Q" horiz-adv-x="1652" d="M94 725q0 141 45 275.5t136.5 237.5t228.5 165.5t325 62.5t325.5 -61.5t226.5 -163.5t133.5 -235.5t46.5 -274.5q0 -127 -36 -250t-110 -225l174 -168l-153 -154l-172 175q-84 -61 -193.5 -94t-241.5 -33q-188 0 -326 62t-229.5 166.5t-135.5 239t-44 275.5zM311 717 q0 -100 32 -196.5t96.5 -171.5t160.5 -121t225 -46q131 0 229.5 48.5t162 126t93.5 177.5q29 93 29 188v13q-2 100 -31.5 195.5t-91 169.5t-157 119t-230.5 45q-131 -2 -229 -49.5t-162.5 -123t-96.5 -173.5q-30 -93 -30 -189v-12z" />
<glyph unicode="R" horiz-adv-x="1546" d="M109 1237v197h804q100 0 191.5 -24t159 -76t107.5 -134t40 -199q0 -106 -30.5 -185t-88 -133t-136.5 -87t-177 -45l317 -350h172v-201h-415v176l-310 369h-247v-344h184v-201h-567v201h168v1036h-172zM496 727h411q152 0 218.5 76t68.5 190q0 125 -81 184.5t-200 59.5 h-417v-510z" />
<glyph unicode="S" horiz-adv-x="1343" d="M115 1061v9q0 110 49 184q51 78 131 123.5t177 66t187 20.5q143 0 267.5 -32.5t247.5 -133.5q0 -82 -1.5 -144t-1.5 -144h-190l-10 194q-72 39 -155 54.5t-150 15.5q-61 0 -122 -12.5t-110 -39t-78.5 -68.5t-29.5 -99q0 -53 26.5 -89t73.5 -60.5t110.5 -40t137.5 -27.5 q113 -16 218 -40t188 -70t133.5 -123t50.5 -197q-2 -129 -57.5 -214t-142.5 -134.5t-195 -70t-212 -20.5q-160 0 -287.5 41t-252.5 152v282h194l11 -180q68 -45 162 -69.5t175 -24.5q66 0 134.5 10t125 37t92.5 73t36 118q0 70 -45.5 112.5t-109 67t-131 36t-110.5 17.5 q-104 14 -201.5 39t-171 71t-118.5 120.5t-45 189.5z" />
<glyph unicode="T" horiz-adv-x="1339" d="M66 1024v410h1208v-410h-191l-10 219h-297v-1046h178v-197h-571v197h180v1046h-301l-8 -219h-188z" />
<glyph unicode="U" horiz-adv-x="1685" d="M78 1237v197h557v-197h-184v-651q0 -104 31.5 -182t87 -131.5t127 -80t151.5 -26.5t150.5 27.5t125 82t85 133t30.5 181.5v647h-184v197h555v-197h-162v-651q0 -158 -50 -274.5t-133 -193.5t-191.5 -115t-225.5 -38q-113 0 -222.5 37t-195.5 112.5t-139 193.5t-53 278 v651h-160z" />
<glyph unicode="V" horiz-adv-x="1605" d="M27 1237v197h544v-197h-161l391 -983l395 983h-162v197h547v-197h-149l-512 -1241h-236l-512 1241h-145z" />
<glyph unicode="W" horiz-adv-x="2336" d="M29 1237v197h546v-197h-159l307 -934l377 1092h143l381 -1092l299 934h-162v197h549v-197h-143l-436 -1239h-207l-355 952l-346 -952h-219l-430 1239h-145z" />
<glyph unicode="X" horiz-adv-x="1433" d="M39 0v195h158l393 540l-354 502h-166v197h397v-181l248 -354l254 338h-183v197h576v-197h-152l-374 -506l381 -536h182v-195h-414v176l-274 391l-269 -372h185v-195h-588z" />
<glyph unicode="Y" horiz-adv-x="1441" d="M39 1237v197h555v-197h-156l111 -172l170 -272l184 280l109 164h-156v197h553v-197h-139l-443 -651v-391h179v-195h-574v195h176v391l-428 651h-141z" />
<glyph unicode="Z" horiz-adv-x="1271" d="M80 0v117l743 1116h-491l-4 -203h-201v404h1014v-95l-756 -1134h590l8 235h195v-440h-1098z" />
<glyph unicode="[" horiz-adv-x="714" d="M184 -358v1814h455v-182h-250v-1446h250v-186h-455z" />
<glyph unicode="\" horiz-adv-x="1005" d="M43 1565h211l707 -1733h-211z" />
<glyph unicode="]" horiz-adv-x="712" d="M74 -170h250v1446h-250v182h454v-1814h-454v186z" />
<glyph unicode="^" horiz-adv-x="1253" d="M82 725l471 711h139l479 -711v-12h-221l-327 501l-328 -501h-211z" />
<glyph unicode="_" horiz-adv-x="1226" d="M131 -23h965v-178h-965v178z" />
<glyph unicode="`" horiz-adv-x="483" d="M8 1434h246l154 -269v-12h-185z" />
<glyph unicode="a" horiz-adv-x="1398" d="M84 506q0 125 41 222t112.5 165t168 103.5t206.5 35.5q109 0 202 -44t151 -130l2 156h348v-185h-152v-649h158v-180h-338q0 -10 -4 14.5t-8 55t-8.5 54t-4.5 13.5q-31 -47 -70.5 -78.5t-85.5 -51t-95.5 -28t-98.5 -8.5q-113 0 -208 36t-165.5 105.5t-110.5 168t-40 225.5 zM285 498q0 -78 25.5 -140.5t70.5 -107.5t105.5 -69.5t131.5 -24.5q82 0 145.5 26.5t109 71.5t70 104.5t28.5 124.5v13q-1 66 -19 124q-20 64 -65 112t-113 76t-156 28q-70 0 -131 -25t-106 -69t-70.5 -106.5t-25.5 -137.5z" />
<glyph unicode="b" horiz-adv-x="1378" d="M57 0v182h162v1073h-158v179h361v-582q20 43 60 77t89.5 56.5t103.5 34.5t103 12q109 0 203 -32.5t163.5 -98t109.5 -165t40 -230.5q0 -127 -40 -224.5t-108.5 -164t-163.5 -100t-206 -33.5q-51 0 -103 9t-98.5 29.5t-86 53.5t-66.5 78l-12 -154h-353zM434 510 q0 -80 27.5 -143.5t73 -106.5t104.5 -65.5t125 -22.5q68 0 127 22.5t102 65.5t68.5 104.5t25.5 141.5q0 84 -25.5 147.5t-70.5 105.5t-104 63.5t-127 21.5q-61 0 -119.5 -22.5t-105 -64.5t-74 -104.5t-27.5 -142.5z" />
<glyph unicode="c" horiz-adv-x="1079" d="M84 506q0 143 45 242.5t120 163t172 92t200 28.5q98 0 188 -23.5t176 -64.5l-12 -276h-180v161q-35 14 -85.5 18.5t-82.5 4.5q-78 -2 -140.5 -29.5t-106.5 -74t-67.5 -108.5t-23.5 -134q0 -80 30.5 -142.5t79.5 -104.5t111.5 -63.5t126.5 -21.5q66 0 136.5 23.5 t117.5 78.5l131 -137q-82 -86 -181.5 -121.5t-207.5 -35.5q-104 0 -203.5 33.5t-175.5 100t-122 165t-46 225.5z" />
<glyph unicode="d" horiz-adv-x="1368" d="M84 506q0 131 40 229.5t108.5 165t161.5 99t200 32.5q51 0 102.5 -10t99.5 -32.5t88 -56.5t68 -81v403h-155v179h358v-1252h160v-182h-332q0 -10 -4 18.5t-10 65.5t-10.5 65.5t-4.5 18.5q-61 -94 -154 -139t-204 -45q-109 0 -202 33.5t-161.5 100t-108.5 164t-40 224.5z M287 508q0 -80 25.5 -141.5t70.5 -103.5t104.5 -64.5t126.5 -22.5q61 0 121 22.5t107 65.5t75.5 104.5t28.5 139.5q0 80 -26.5 143.5t-72.5 106.5t-106 66.5t-123 23.5q-68 0 -127 -21.5t-105 -63.5t-72.5 -105.5t-26.5 -149.5z" />
<glyph unicode="e" horiz-adv-x="1193" d="M82 512q0 113 39 210t109.5 166.5t169 109.5t214.5 40q121 0 220.5 -37.5t167.5 -114.5q69 -76 101 -190q22 -77 22 -174q0 -45 -5 -94h-831q6 -57 33.5 -105.5t72.5 -83t104.5 -54t131.5 -19.5q39 0 81 7t82 21.5t74.5 35t59.5 46.5l133 -124q-39 -43 -90 -76 t-108.5 -54.5t-119 -33t-118.5 -11.5q-123 0 -223.5 39t-171 109t-109.5 168t-39 219zM289 596h637q-10 127 -93 193.5t-212 66.5q-59 0 -113.5 -17.5t-98.5 -50t-76 -82t-44 -110.5z" />
<glyph unicode="f" horiz-adv-x="755" d="M63 829v168h195v72q0 186 102 283q101 96 259 96h6q47 0 95 -12.5t95 -34.5l-59 -166q-35 18 -62.5 28.5t-64.5 10.5q-76 0 -123 -53.5t-47 -151.5v-72h252v-168h-252v-649h176v-178h-537v178h160v649h-195z" />
<glyph unicode="g" horiz-adv-x="1251" d="M84 532q0 125 47 220.5t124 159t174 95t196 31.5q33 0 69.5 -4t73.5 -12t71.5 -21.5t61.5 -31.5l111 133l143 -115l-119 -139q63 -72 94 -144.5t31 -171.5q0 -133 -63.5 -239.5t-200.5 -159.5q76 -25 126 -61.5t80 -79.5t42 -91t12 -96q0 -100 -45 -177t-119.5 -128 t-172 -76.5t-199.5 -25.5q-121 0 -220.5 30.5t-168 89t-105.5 140.5q-35 78 -35 175v11h195q2 -72 30.5 -121t74.5 -79.5t105.5 -46t123.5 -15.5q61 0 119.5 11.5t105.5 37t75.5 67.5t28.5 103q0 51 -24.5 93.5t-67.5 72t-103.5 46t-129.5 16.5q-121 0 -221.5 34.5t-171 99 t-109.5 158t-39 211.5zM285 532q2 -80 29.5 -140t74.5 -102t108.5 -63.5t131.5 -21.5q72 0 133 24.5t106 67.5t71 102.5t26 128.5q0 78 -28 138.5t-74 101.5t-108.5 62.5t-129.5 21.5q-63 0 -124 -20.5t-109 -60.5t-77.5 -99.5t-29.5 -139.5z" />
<glyph unicode="h" horiz-adv-x="1361" d="M55 0v176h164v1084h-156v176h357v-570q66 86 154 122t180 36q106 0 187 -36t135 -99.5t81 -152.5t27 -193v-367h159v-176h-481v176h123v363q-1 141 -71 219q-69 76 -189 76h-6q-68 0 -123 -25t-93 -67t-59.5 -98t-21.5 -120v-348h158v-176h-525z" />
<glyph unicode="i" horiz-adv-x="655" d="M80 0v182h158v656h-154v178h356v-834h150v-182h-510zM215 1311q0 61 39 93t88 32t88 -33t39 -96q0 -59 -39 -92t-88 -33t-88 32.5t-39 96.5z" />
<glyph unicode="j" horiz-adv-x="581" d="M-96 -442l67 161q68 -32 126 -32h3q80 4 103.5 54t23.5 142v948h-176v181h377v-1129q0 -188 -73.5 -286.5t-241.5 -98.5q-53 0 -105.5 13.5t-103.5 46.5zM203 1319q0 61 39 93t86 32q49 0 89 -33t40 -96q0 -59 -40 -92t-87 -33q-49 0 -88 32.5t-39 96.5z" />
<glyph unicode="k" horiz-adv-x="1189" d="M61 0v182h158v1069h-153v183h352v-846l180 162l123 96l-123 6v162h510v-168h-125l-313 -254l303 -410h168v-182h-367v113l-256 354l-100 -80v-205h135v-182h-492z" />
<glyph unicode="l" horiz-adv-x="641" d="M61 0v182h162v1071h-155v181h356v-1252h151v-182h-514z" />
<glyph unicode="m" horiz-adv-x="2015" d="M80 0v182h164v652h-158v178h348l17 -133q43 80 121.5 115.5t156.5 35.5q123 0 204 -47t120 -160q59 111 151 159t195 48q223 0 325.5 -125t102.5 -338v-385h162v-182h-510v182h149v385q0 117 -52 194t-181 77q-57 0 -104.5 -22.5t-80 -59.5t-50 -87.5t-17.5 -105.5v-381 h153v-182h-510v182h156v381q0 117 -59.5 196t-186.5 79q-57 0 -103 -21.5t-78 -59.5t-49 -88.5t-17 -105.5v-381h155v-182h-524z" />
<glyph unicode="n" horiz-adv-x="1388" d="M82 0v182h164v654h-160v180h342l14 -137q74 86 145.5 118.5t170.5 32.5q229 0 337.5 -126t108.5 -355v-367h164v-182h-504v182h137v365q0 154 -56 223.5t-206 69.5q-129 0 -211 -80t-82 -223v-355h160v-182h-524z" />
<glyph unicode="o" horiz-adv-x="1222" d="M82 504q0 115 39 213t109.5 168.5t167 110.5t212.5 40q119 0 217.5 -40t168 -110.5t107.5 -167.5t38 -214q0 -113 -39 -208t-108.5 -166t-167 -110.5t-216.5 -39.5q-117 0 -214 39.5t-166.5 110.5t-108.5 166t-39 208zM285 504q0 -72 23.5 -132.5t65.5 -105.5 t102.5 -70.5t133.5 -25.5q74 0 134.5 25.5t103.5 70.5t67.5 105.5t24.5 132.5q0 76 -24.5 140.5t-68.5 110.5t-104.5 71.5t-130.5 25.5q-74 0 -134 -25.5t-103 -71.5t-66.5 -110.5t-23.5 -140.5z" />
<glyph unicode="p" horiz-adv-x="1376" d="M57 836v180h353q0 6 1 -7.5t1 -36t2 -51t2 -51t1 -36t1 -5.5q63 90 157.5 143.5t212.5 55.5q111 -4 204 -40t160 -102.5t103.5 -162.5t36.5 -219q0 -121 -36.5 -218.5t-104.5 -167t-163 -106.5t-212 -37q-100 0 -198.5 41t-163.5 140v-449h164v-182h-500v182h137v1129 h-158zM440 500q0 -76 26 -137.5t70 -105.5t102 -69.5t124 -27.5q70 0 129 23.5t103 67.5t70 107.5t26 141.5q0 166 -89.5 247.5t-234.5 81.5q-68 0 -127 -24.5t-103 -68.5t-70 -104.5t-26 -131.5z" />
<glyph unicode="q" horiz-adv-x="1310" d="M84 508q0 117 36 212t102.5 163.5t158.5 106.5t205 38q119 0 215 -50t155 -142l9 180h192v-1309h137v-184h-493v184h160v447q-31 -49 -73 -83t-90 -55.5t-98.5 -31t-99.5 -9.5q-119 0 -214 38t-162.5 107.5t-103.5 168t-36 219.5zM289 504q0 -158 88 -246t244 -88 q66 0 124 24.5t102 69.5t69.5 106.5t25.5 135.5t-25.5 135t-70.5 105.5t-103.5 69t-126.5 24.5q-74 0 -134 -23.5t-103 -67.5t-66.5 -106.5t-23.5 -138.5z" />
<glyph unicode="r" horiz-adv-x="1007" d="M78 0v178h166v658h-156v180h330l24 -107q53 74 134 100.5t167 26.5q78 0 139.5 -22.5t114.5 -61.5l-92 -174q-41 29 -83 44.5t-95 15.5q-141 -4 -211 -71t-70 -214v-375h156v-178h-524z" />
<glyph unicode="s" horiz-adv-x="1052" d="M98 94l4 266h179l8 -145q59 -29 121.5 -42t126.5 -13q33 0 72.5 4t74.5 18q34 14 60 40q28 29 28 75q0 67 -70 97q-72 30 -186 40q-78 10 -151.5 26.5t-132 49.5t-93.5 85t-35 134q0 84 39 144.5t100.5 99.5t136.5 56.5t144 17.5q98 0 202.5 -23t191.5 -66l-3 -264h-172 l-12 148q-16 8 -42.5 14t-56.5 10t-57.5 6t-46.5 2h-17q-38 0 -72 -7q-42 -9 -72.5 -28.5t-48 -47t-17.5 -62.5q0 -33 20.5 -54.5t52.5 -35.5t71.5 -21.5t82.5 -11.5q72 -8 151 -22.5t144.5 -48t107.5 -93.5q40 -57 40 -148v-9q-2 -76 -37 -134.5t-93.5 -98.5t-137 -60.5 t-171.5 -20.5q-125 0 -225 29t-209 94z" />
<glyph unicode="t" horiz-adv-x="792" d="M23 836v174h196v268l203 22v-290h297v-174h-299v-494q0 -82 33.5 -128t111.5 -46q61 0 127 33l58 -168q-53 -23 -97.5 -34t-97.5 -13h-13q-154 0 -237 89q-86 93 -86 267v494h-196z" />
<glyph unicode="u" horiz-adv-x="1382" d="M31 838v178h354v-547q0 -143 65.5 -217t221.5 -74q63 0 116.5 23.5t91.5 64.5t58 96.5t20 118.5v357h-163v178h366v-834h162v-182h-319l-37 139q-72 -82 -157 -115.5t-181 -35.5q-117 0 -201 33.5t-138 97t-81 151.5t-27 197v371h-151z" />
<glyph unicode="v" horiz-adv-x="1318" d="M33 838v176h473v-176h-115l158 -334l113 -297l106 295l156 336h-113v176h477v-176h-149l-369 -846h-223l-367 846h-147z" />
<glyph unicode="w" horiz-adv-x="1863" d="M31 838v176h489v-176h-119l197 -633l250 809h170l250 -809l194 633h-133v176h500v-176h-148l-292 -844h-232l-139 373l-86 327l-92 -327l-133 -373h-232l-291 844h-153z" />
<glyph unicode="x" horiz-adv-x="1134" d="M59 0v180h113l258 336l-209 322h-137v178h346v-154l143 -217l72 96l74 101h-119v174h467v-174h-127l-242 -328l230 -334h137v-180h-352v156l-156 229l-164 -205h125v-180h-459z" />
<glyph unicode="y" horiz-adv-x="1249" d="M33 836v180h477v-178h-115l140 -314l104 -288l98 280l125 320h-151v180h501v-180h-129l-450 -1098q-39 -92 -95.5 -141.5t-123.5 -63.5q-32 -7 -65 -7q-38 0 -79 9q-75 16 -151 55l74 168q33 -16 69 -28q32 -10 62 -10h6q32 1 60 17.5t48 59.5l80 215l-350 824h-135z" />
<glyph unicode="z" horiz-adv-x="1030" d="M80 0v80l541 749h-328l-4 -133h-183v320h797v-119l-514 -707h354l11 175h182v-365h-856z" />
<glyph unicode="{" horiz-adv-x="696" d="M72 510v154q49 0 78.5 17t45 45t20.5 62.5t5 67.5v268q0 92 20.5 163t66.5 114t123 56t190 -7v-150q-63 12 -101.5 6t-60 -29.5t-28.5 -63t-7 -97.5v-260q0 -45 -2 -87t-14.5 -77t-42 -62.5t-84.5 -41.5q55 -16 85.5 -44t44 -63t15.5 -77t2 -85v-282q0 -57 5 -95 t25.5 -59.5t59.5 -28t105 2.5l-2 -156q-117 -16 -194 -3t-123 55t-64.5 111.5t-18.5 162.5v288q0 33 -5 68t-20.5 62.5t-45 46t-78.5 18.5z" />
<glyph unicode="|" horiz-adv-x="573" d="M186 -195v1698h201v-1698h-201z" />
<glyph unicode="}" horiz-adv-x="696" d="M76 -160q68 -8 107.5 -3t59 26.5t25.5 59.5t6 95v281q0 45 2.5 87t15.5 78t43 63.5t85 43.5q-57 16 -87 44t-43.5 63t-15.5 77t-2 87v258q0 57 -7 97t-28.5 63.5t-59.5 29.5t-101 -6v152q113 18 189.5 4.5t122.5 -56.5t66.5 -113.5t20.5 -162.5v-266q0 -33 5 -67 t20.5 -61.5t45 -46t79.5 -18.5v-151q-49 0 -79 -17.5t-45.5 -45t-20.5 -62.5t-5 -68v-289q0 -94 -18.5 -163.5t-64.5 -111.5t-122.5 -56.5t-193.5 4.5v151z" />
<glyph unicode="~" horiz-adv-x="1277" d="M121 551q25 70 65.5 124t93 85t113 36t121.5 -24l291 -139q66 -35 117 -2t86 123l151 -58q-25 -72 -63.5 -128t-90 -87.5t-115 -36t-134.5 30.5l-295 139q-27 6 -52.5 10.5t-51 -5t-50 -38t-47.5 -89.5z" />
<glyph unicode="&#xa1;" horiz-adv-x="563" d="M139 860q0 68 43 102.5t97 32.5q53 0 97 -33.5t44 -105.5q0 -68 -43 -102.5t-96 -34.5t-97.5 34.5t-44.5 106.5zM174 -451v1084h219v-1084h-219z" />
<glyph unicode="&#xa2;" horiz-adv-x="1069" d="M80 481q0 98 30.5 184.5t87 154t136.5 114.5t178 65v140h188v-140q162 -29 289 -153l-123 -127q-49 47 -118.5 75.5t-133.5 28.5q-68 0 -128 -24.5t-105 -69.5t-71.5 -108.5t-26.5 -139.5q0 -78 26.5 -140t71.5 -107.5t105.5 -69t127.5 -23.5q63 0 131 33t117 80 l127 -148q-125 -119 -289 -145v-143h-188l-4 147q-92 16 -171 61.5t-136.5 112t-89 153.5t-31.5 189z" />
<glyph unicode="&#xa3;" horiz-adv-x="1349" d="M111 0l4 201q59 35 98 79t60.5 94t27.5 105.5t2 110.5h-190v170h151q-14 55 -28.5 113.5t-14.5 121.5q0 111 37 196t104.5 143.5t161.5 88t209 29.5q100 0 187.5 -22.5t152 -71.5t102 -128t42.5 -190h-195q-4 63 -27.5 106.5t-61.5 70t-90 37t-110 10.5 q-152 0 -228.5 -74t-76.5 -189q0 -63 11.5 -119.5t23.5 -115.5h469v-172h-430q4 -47 1 -104.5t-18.5 -112.5t-47 -104.5t-83.5 -82.5h682l8 218h193v-408h-1126z" />
<glyph unicode="&#xa4;" horiz-adv-x="1234" d="M129 313l121 117q-66 104 -63 222t67 220l-125 121l150 154l120 -123q98 51 219 51q117 0 213 -51l123 123l150 -154l-117 -116q59 -104 59.5 -225.5t-61.5 -221.5l119 -117l-150 -149l-120 119q-47 -27 -103.5 -39.5t-114.5 -12.5q-59 0 -114.5 14.5t-102.5 37.5 l-120 -119zM356 653q0 -49 17.5 -96t51.5 -84t82 -59.5t109 -22.5t109.5 22.5t81.5 59.5t49 84t16 96q0 51 -16 98.5t-49 84t-81 59.5t-110 23q-61 0 -109 -23t-82 -59.5t-51.5 -83.5t-17.5 -99z" />
<glyph unicode="&#xa5;" horiz-adv-x="1499" d="M66 1237v197h552v-197h-161l286 -457l301 457h-163v197h555v-197h-142l-307 -453h191v-166h-304l-20 -24v-86h332v-162h-332v-151h178v-195h-575v195h178v151h-326v162h326v86l-23 24h-301v166h193l-299 453h-139z" />
<glyph unicode="&#xa6;" horiz-adv-x="591" d="M190 -184v751h211v-751h-211zM190 700v752h211v-752h-211z" />
<glyph unicode="&#xa7;" horiz-adv-x="1204" d="M106 162l134 137q72 -82 166 -115.5t194 -29.5q49 0 99.5 7t91 22.5t66.5 40t26 59.5q2 35 -19.5 58.5t-59.5 38.5t-89 22.5t-113 7.5q-86 4 -173 16t-155.5 45t-110.5 90t-40 152q2 59 46 119.5t118 95.5q-86 27 -123 93t-33 130q4 92 53 151.5t122 95.5t158 49t163 13 q55 0 115.5 -8t118 -25.5t109.5 -47t91 -72.5l-137 -115q-18 20 -52 36.5t-75 28t-86 17.5t-88 6q-135 0 -207 -33t-72 -94q0 -37 25.5 -59.5t65.5 -37t87 -21.5t90 -11q80 -6 169 -21.5t161 -48t116 -90t36 -145.5q-6 -78 -53.5 -132.5t-118.5 -76.5q80 -35 124 -91.5 t44 -137.5q0 -90 -51.5 -150.5t-126 -97.5t-160.5 -53.5t-156 -16.5q-145 0 -277.5 48t-212.5 151zM328 713q0 -35 23.5 -60.5t62.5 -43t89 -26t101 -8.5q53 0 103.5 9.5t88.5 28t61.5 45t23.5 59.5q2 29 -20.5 54.5t-60.5 44t-88 29.5t-106 13q-49 2 -98 -6t-89 -26.5 t-65.5 -47t-25.5 -65.5z" />
<glyph unicode="&#xa8;" horiz-adv-x="1009" d="M109 1354q0 63 38.5 94t85.5 33q47 0 86 -31t39 -92t-39 -92t-86 -33q-47 0 -85.5 30.5t-38.5 90.5zM596 1354q0 63 39 94t86 31t86 -31t39 -94q0 -61 -39 -92t-86 -31t-86 30.5t-39 92.5z" />
<glyph unicode="&#xa9;" horiz-adv-x="1685" d="M96 721q0 154 50.5 290t147.5 237.5t236.5 160.5t317.5 59q168 0 305 -59t233.5 -160.5t148.5 -238t52 -289.5q0 -154 -49 -290t-143.5 -237.5t-231.5 -161t-315 -59.5t-317.5 59.5t-236.5 162t-147.5 237.5t-50.5 289zM281 719q0 -123 38.5 -229.5t111.5 -186.5 t178.5 -125t238.5 -45t236.5 45t174 125t107.5 186.5t37 229.5t-37 229.5t-107.5 186t-174 125t-236.5 45.5t-238.5 -45.5t-178.5 -125t-111.5 -186t-38.5 -229.5zM459 725q0 90 31.5 164t87 127t131 81.5t161.5 28.5q166 0 289 -122l-110 -121q-72 72 -170 71 q-51 0 -96.5 -17t-78 -49t-52 -75t-19.5 -94t19.5 -93t52 -73t76.5 -47.5t96 -16.5q53 0 94 19.5t80 58.5l114 -114q-123 -123 -293 -123q-86 0 -161.5 27.5t-132 79.5t-88 125t-31.5 163z" />
<glyph unicode="&#xaa;" horiz-adv-x="917" d="M74 1104q0 84 26.5 148.5t73.5 108.5t110.5 65.5t135.5 21.5q70 0 131 -31t98 -84v103h158v-664h-158l-6 105q-16 -31 -43 -53.5t-57.5 -38t-63.5 -23.5t-63 -10q-74 0 -136.5 23.5t-108.5 67.5t-71.5 109.5t-25.5 151.5zM104 496v155h711v-155h-711zM250 1100 q0 -86 53 -138.5t131 -52.5q61 0 103.5 29t64 71t22.5 91t-19.5 91t-63 70.5t-105.5 28.5q-78 0 -132 -52t-54 -138z" />
<glyph unicode="&#xab;" horiz-adv-x="960" d="M76 608l282 451h217l-282 -451l282 -452h-217zM375 608l282 451h217l-282 -451l282 -452h-217z" />
<glyph unicode="&#xac;" horiz-adv-x="1067" d="M139 586v184h776v-446h-184v262h-592z" />
<glyph unicode="&#xad;" horiz-adv-x="1007" d="M133 492v192h741v-192h-741z" />
<glyph unicode="&#xae;" horiz-adv-x="1675" d="M98 717q0 154 49.5 290t143.5 237.5t232.5 160.5t314.5 59q178 0 316 -59t232.5 -160.5t142.5 -238t48 -289.5q0 -154 -48 -290t-142.5 -237.5t-232.5 -161t-316 -59.5q-176 0 -314.5 59.5t-232.5 162t-143.5 237.5t-49.5 289zM283 717q0 -129 35.5 -236.5t106.5 -184.5 t174 -119t239 -42q133 0 237.5 46t176 125t108.5 185.5t37 227.5q0 123 -37 229.5t-108.5 186t-176 125t-237.5 45.5t-236.5 -45.5t-174.5 -125t-107.5 -187t-36.5 -230.5zM555 348v762h354q84 0 142.5 -31.5t92.5 -81t43 -108t-8.5 -112.5t-60.5 -96t-112 -58l200 -238v-37 h-182l-193 252h-108v-252h-168zM723 741h184q57 0 86 33t29 73t-28.5 72.5t-84.5 32.5h-186v-211z" />
<glyph unicode="&#xaf;" horiz-adv-x="1056" d="M172 1264v174h713v-174h-713z" />
<glyph unicode="&#xb0;" horiz-adv-x="679" d="M95 1237q1 61 29 113.5t82 87.5t136 35q80 0 133 -35t81 -87.5t28 -113.5t-26 -113.5t-80 -87.5t-134 -35q-84 0 -139 35t-83 87.5t-27 113.5zM222 1236q-1 -42 28 -78t88 -36q57 0 86 36t29 78t-29 78t-84 36q-57 0 -87 -36t-31 -78z" />
<glyph unicode="&#xb1;" horiz-adv-x="1075" d="M131 672v188h305v316h201v-316h307v-188h-307v-316h-201v316h-305zM135 55v191h805v-191h-805z" />
<glyph unicode="&#xb2;" horiz-adv-x="755" d="M74 858v189q0 61 21.5 105t57 74.5t84 48t101.5 21.5q37 2 67.5 5.5t54 11.5t37 24.5t13.5 46.5q0 53 -40 76t-101 23q-53 0 -92 -18.5t-44 -71.5h-153q0 63 25.5 106t66.5 69.5t92 38t105 11.5q61 0 115.5 -12.5t95.5 -40t64.5 -72.5t23.5 -113q0 -76 -31 -117.5 t-75 -61t-93 -26t-88 -8.5q-20 -2 -45 -5t-46.5 -15t-36.5 -36t-15 -67v-38h280l6 100h148v-248h-598z" />
<glyph unicode="&#xb3;" horiz-adv-x="743" d="M70 1061h161q4 -31 19.5 -47.5t37 -23.5t43 -9t38.5 -2q20 0 44.5 3t46 13.5t36 31t14.5 54.5q0 16 -4 35t-18.5 34t-41 24.5t-71.5 9.5h-101l-16 33l158 237h-185l-4 -70h-137v207h569v-37l-182 -254q41 -2 78 -14t63.5 -37.5t42 -66.5t15.5 -101q0 -76 -29 -125 t-74 -76.5t-100 -39t-106 -11.5q-53 0 -105.5 12.5t-95.5 40t-69.5 71.5t-26.5 108z" />
<glyph unicode="&#xb4;" horiz-adv-x="481" d="M31 1153v12l149 269h250l-215 -281h-184z" />
<glyph unicode="&#xb5;" horiz-adv-x="1255" d="M109 -451v1463h200v-596q0 -70 25.5 -123t66.5 -90t92.5 -57.5t104.5 -20.5q51 0 102.5 18.5t91 57.5t65.5 98t26 141v572h200v-1012h-176l-18 92q-23 -37 -58.5 -64.5t-77.5 -46t-85 -27.5t-82 -7q-39 0 -83 6t-84 22.5t-73 46t-51 76.5v-549h-186z" />
<glyph unicode="&#xb6;" horiz-adv-x="1683" d="M57 897q0 100 35 196.5t102.5 171t168 121t235.5 46.5h1012v-197h-199v-1673h-201v1673h-456v-1677h-205v811q-123 8 -216 56t-154.5 122t-91.5 165t-30 185z" />
<glyph unicode="&#xb7;" horiz-adv-x="524" d="M129 571q0 68 42 101t91 33t91 -33t42 -101q0 -66 -42 -99.5t-91 -33.5t-91 34t-42 99z" />
<glyph unicode="&#xb8;" horiz-adv-x="727" d="M57 -340l95 84q25 -35 64.5 -53.5t82.5 -14.5q37 0 67.5 15.5t41.5 46.5q8 29 -4.5 52.5t-39 36.5t-62.5 14t-73 -17l-53 33l60 188h147l-29 -108q68 0 111 -21.5t66.5 -54.5t28.5 -73t-1 -77q-10 -45 -34.5 -78.5t-60.5 -56t-78 -33t-87 -8.5q-72 2 -138.5 33t-103.5 92 z" />
<glyph unicode="&#xb9;" horiz-adv-x="528" d="M70 827v138h125v436l-107 -27v137l266 64v-610h127v-138h-411z" />
<glyph unicode="&#xba;" horiz-adv-x="858" d="M72 1100q0 82 27.5 146.5t74.5 109.5t112.5 67.5t139.5 22.5q76 0 140.5 -22.5t111.5 -66.5t74.5 -107.5t27.5 -145.5q0 -84 -27.5 -149.5t-75.5 -110.5t-111.5 -69.5t-135.5 -24.5q-76 0 -141.5 22.5t-113.5 67.5t-75.5 110.5t-27.5 149.5zM96 475v158h672v-158h-672z M242 1104q0 -86 50 -140.5t138 -54.5q84 0 135 52.5t51 138.5q0 43 -15 78.5t-40.5 62.5t-60.5 41t-74 14q-78 0 -131 -54t-53 -138z" />
<glyph unicode="&#xbb;" horiz-adv-x="958" d="M84 160l278 450l-278 453h215l283 -453l-283 -450h-215zM383 160l281 450l-281 453h215l283 -453l-283 -450h-215z" />
<glyph unicode="&#xbc;" horiz-adv-x="1554" d="M90 688v137h129v435l-110 -29v141l270 66v-613h127v-137h-416zM281 -4l778 1450h190l-784 -1450h-184zM842 272l350 473h207v-464h90v-142h-90v-137h-154v137h-395zM1012 281h233v311z" />
<glyph unicode="&#xbd;" horiz-adv-x="1654" d="M90 688v137h125v437l-109 -27v139l273 66v-615h127v-137h-416zM274 -4l781 1450h192l-784 -1450h-189zM975 -2v186q0 61 21.5 106.5t57.5 76t84 48t101 21.5q37 2 67.5 5t54 11.5t37 25t13.5 44.5q0 53 -40 76t-101 23q-53 0 -92 -18.5t-43 -72.5h-154q0 63 25.5 107.5 t66.5 71t92.5 38t104.5 11.5q61 0 115.5 -12.5t95.5 -40t64.5 -72.5t23.5 -113q0 -76 -31 -118t-75 -61t-93 -25.5t-88 -8.5q-20 -2 -45 -6t-46.5 -16.5t-36.5 -36t-15 -66.5v-39h280l6 103h148v-248h-598z" />
<glyph unicode="&#xbe;" horiz-adv-x="1617" d="M76 938h155q4 -29 20.5 -45t36 -24.5t41 -9.5t38.5 -1q20 0 43.5 3t45 13.5t36 30t14.5 53.5q0 14 -5 33t-19.5 34t-41 24.5t-69.5 9.5h-99l-12 31l154 233h-183l-4 -70h-131v203h553v-35l-180 -247q80 -6 137.5 -53.5t57.5 -162.5q0 -74 -28 -120.5t-71 -74.5t-96 -38 t-104 -10t-102.5 11t-92.5 38t-67.5 70t-26.5 104zM367 -2l751 1448h191l-758 -1448h-184zM893 274l350 492h207v-483h102v-142h-102v-143h-154v143h-395zM1063 283h233v327z" />
<glyph unicode="&#xbf;" horiz-adv-x="1236" d="M63 4q0 100 39 167t94.5 112t116 73.5t103.5 53.5q43 18 68.5 36.5t41 46t20.5 66.5t7 98h215q-2 -104 -19.5 -173.5t-51 -117t-81 -77t-108.5 -53.5q-37 -18 -76 -36t-70.5 -43.5t-53 -62.5t-21.5 -90q0 -74 30.5 -119t79.5 -69.5t108.5 -31.5t115.5 -7q55 0 115.5 13 t109.5 42t80.5 74t34.5 108l219 -2q0 -115 -48.5 -196.5t-128 -134t-180 -77t-205.5 -22.5q-106 0 -206.5 20.5t-178 69.5t-125 130t-45.5 202zM524 901q0 68 43.5 101.5t94.5 33.5q53 0 95 -33.5t40 -101.5q0 -68 -42 -102.5t-96 -34.5q-51 0 -93 33.5t-42 103.5z" />
<glyph unicode="&#xc0;" d="M23 0v199h133l477 1040h-152v195h486l542 -1235h133v-199h-532v199h172q-29 55 -49.5 109t-42.5 102h-709q-18 -45 -43.5 -99.5t-50.5 -111.5h166v-199h-530zM516 1812h246l153 -266v-12h-184zM565 602h539q-27 63 -54.5 130t-58 142.5t-67.5 160.5t-80 188 q-47 -104 -86 -191.5t-73 -162t-63.5 -140t-56.5 -127.5z" />
<glyph unicode="&#xc1;" d="M23 0v199h133l477 1040h-152v195h486l542 -1235h133v-199h-532v199h172q-29 55 -49.5 109t-42.5 102h-709q-18 -45 -43.5 -99.5t-50.5 -111.5h166v-199h-530zM565 602h539q-27 63 -54.5 130t-58 142.5t-67.5 160.5t-80 188q-47 -104 -86 -191.5t-73 -162t-63.5 -140 t-56.5 -127.5zM709 1528v12l149 268h250l-215 -280h-184z" />
<glyph unicode="&#xc2;" d="M23 0v199h133l477 1040h-152v195h486l542 -1235h133v-199h-532v199h172q-29 55 -49.5 109t-42.5 102h-709q-18 -45 -43.5 -99.5t-50.5 -111.5h166v-199h-530zM438 1524v18l312 277h122l312 -277v-18h-207l-168 145l-162 -145h-209zM565 602h539q-27 63 -54.5 130 t-58 142.5t-67.5 160.5t-80 188q-47 -104 -86 -191.5t-73 -162t-63.5 -140t-56.5 -127.5z" />
<glyph unicode="&#xc3;" d="M23 0v199h133l477 1040h-152v195h486l542 -1235h133v-199h-532v199h172q-29 55 -49.5 109t-42.5 102h-709q-18 -45 -43.5 -99.5t-50.5 -111.5h166v-199h-530zM467 1610q25 98 96.5 146t159.5 22q12 -4 29.5 -12.5t36 -17.5t35 -18.5t26.5 -11.5q25 -6 55.5 3.5t44.5 52.5 l135 -58q-12 -57 -39.5 -94t-62.5 -56.5t-73 -22.5t-72 9q-12 2 -29.5 10.5t-35 17.5t-34 17.5t-26.5 10.5q-27 6 -58.5 -6.5t-52.5 -59.5zM565 602h539q-27 63 -54.5 130t-58 142.5t-67.5 160.5t-80 188q-47 -104 -86 -191.5t-73 -162t-63.5 -140t-56.5 -127.5z" />
<glyph unicode="&#xc4;" d="M23 0v199h133l477 1040h-152v195h486l542 -1235h133v-199h-532v199h172q-29 55 -49.5 109t-42.5 102h-709q-18 -45 -43.5 -99.5t-50.5 -111.5h166v-199h-530zM455 1636q0 63 38.5 94t86.5 33q47 0 87 -30.5t40 -92.5q0 -61 -40 -91.5t-87 -32.5q-47 0 -86 30.5t-39 89.5z M565 602h539q-27 63 -54.5 130t-58 142.5t-67.5 160.5t-80 188q-47 -104 -86 -191.5t-73 -162t-63.5 -140t-56.5 -127.5zM942 1636q0 63 39 94t86 31t87 -30.5t40 -94.5q0 -61 -40 -92t-87 -31t-86 31t-39 92z" />
<glyph unicode="&#xc5;" d="M23 0v199h133l528 1157q-45 27 -65.5 64.5t-26.5 69.5t-4 51.5t2 6.5q0 57 21.5 100.5t57.5 72t82 44t95 15.5q47 0 93 -14.5t83 -43t59.5 -71.5t22.5 -101q0 -68 -28.5 -116t-76.5 -80l510 -1155h133v-199h-534v199h172q-27 55 -48.5 109t-41.5 102h-709l-94 -211h166 v-199h-530zM565 602h539q10 -25 -3.5 10t-40 103.5t-60 155.5t-65.5 168t-57.5 142.5t-31.5 78.5zM733 1548q0 -35 24.5 -70.5t88.5 -35.5q63 0 91 34.5t26 69.5q0 35 -27 71t-90 36q-61 0 -87 -36t-26 -69z" />
<glyph unicode="&#xc6;" horiz-adv-x="1974" d="M18 0v197h150l668 1042h-146v195h1153v-412h-192l-9 213h-421v-404h432v-200h-432v-428h452l8 217h193v-420h-1022v197h164v188h-484l-120 -188h129v-197h-523zM639 555h377l2 635z" />
<glyph unicode="&#xc7;" horiz-adv-x="1429" d="M94 709q-2 139 43 274t139.5 240.5t236.5 170t333 64.5q125 0 243.5 -42t223.5 -122q0 -78 -2 -154.5t-4 -154.5h-193l-8 211q-61 33 -126 45t-134 12q-139 0 -240.5 -47t-168 -122.5t-98.5 -174t-30 -198.5q2 -96 32 -191.5t94.5 -170.5t165.5 -121t245 -46 q100 0 204.5 40t178.5 114l153 -148q-205 -199 -493 -211l-41 -112q70 0 113 -21.5t66.5 -53.5t28.5 -72t-3 -76q-20 -92 -94 -138.5t-160 -46.5q-74 0 -144.5 34t-109.5 101l96 80q27 -41 69 -59.5t83 -13.5q35 2 63.5 17t38.5 46q8 29 -5 52.5t-40 36.5t-62.5 13 t-74.5 -18l-43 35l75 203q-168 14 -290.5 80.5t-202.5 165t-119 222t-39 257.5z" />
<glyph unicode="&#xc8;" horiz-adv-x="1419" d="M109 0v199h172v1040h-168v195h1175v-412h-192l-9 215h-595v-406h608v-198h-608v-430h626l8 217h193v-420h-1210zM465 1810h248l151 -266v-12h-184z" />
<glyph unicode="&#xc9;" horiz-adv-x="1419" d="M109 0v199h172v1040h-168v195h1175v-412h-192l-9 215h-595v-406h608v-198h-608v-430h626l8 217h193v-420h-1210zM653 1526v12l150 268h250l-215 -280h-185z" />
<glyph unicode="&#xca;" horiz-adv-x="1419" d="M109 0v199h172v1040h-168v195h1175v-412h-192l-9 215h-595v-406h608v-198h-608v-430h626l8 217h193v-420h-1210zM354 1540v19l312 286h120l312 -289v-16h-209l-164 152l-162 -152h-209z" />
<glyph unicode="&#xcb;" horiz-adv-x="1419" d="M109 0v199h172v1040h-168v195h1175v-412h-192l-9 215h-595v-406h608v-198h-608v-430h626l8 217h193v-420h-1210zM358 1651q0 63 39 94t86 33q47 0 86 -31t39 -92t-39 -92t-86 -33q-47 0 -86 30.5t-39 90.5zM846 1651q0 63 39 94t86 31t86 -31t39 -94q0 -61 -39 -92 t-86 -31t-86 30.5t-39 92.5z" />
<glyph unicode="&#xcc;" horiz-adv-x="782" d="M88 1815h246l153 -267v-12h-184zM104 0v199h177v1036h-172v199h563v-199h-174v-1036h178v-199h-572z" />
<glyph unicode="&#xcd;" horiz-adv-x="782" d="M104 0v199h177v1036h-172v199h563v-199h-174v-1036h178v-199h-572zM291 1536v10l151 269h248l-215 -279h-184z" />
<glyph unicode="&#xce;" horiz-adv-x="782" d="M47 1532v18l283 293h110l283 -295v-16h-191l-147 154l-149 -154h-189zM104 0v199h177v1036h-172v199h563v-199h-174v-1036h178v-199h-572z" />
<glyph unicode="&#xcf;" horiz-adv-x="782" d="M63 1630q0 63 39 94t86 31t87 -30.5t40 -92.5q0 -61 -40 -92t-87 -31t-86 31t-39 90zM104 0v199h177v1036h-172v199h563v-199h-174v-1036h178v-199h-572zM475 1630q0 63 39 94t86 31t87 -30.5t40 -94.5q0 -61 -40 -92t-87 -31t-86 31t-39 92z" />
<glyph unicode="&#xd0;" horiz-adv-x="1607" d="M113 0v199h170v407h-150v189h150v446h-166v195h676q182 0 317 -55.5t224 -150.5t133 -224t42 -275q0 -145 -42 -278.5t-129 -233.5t-222 -159.5t-323 -59.5h-680zM502 197h291q135 0 229 47t154.5 123.5t89 172t28.5 193.5q0 96 -29.5 187.5t-92 162t-156.5 113.5 t-223 43h-291v-444h311v-189h-311v-409z" />
<glyph unicode="&#xd1;" horiz-adv-x="1744" d="M102 1235v199h330l842 -1031v832h-172v199h549v-199h-164v-1235h-146l-852 1030v-835h173v-195h-551v195h163v1040h-172zM518 1642q27 104 105.5 153.5t177.5 21.5q12 -4 31.5 -12.5t40 -17.5t39 -18.5t30.5 -11.5q29 -10 62.5 1t50.5 57l151 -60q-16 -61 -47 -100 t-68.5 -60.5t-80.5 -23.5t-82 10q-14 2 -34 11.5t-39 19.5t-37.5 18t-29.5 10q-33 6 -66.5 -6t-53.5 -63z" />
<glyph unicode="&#xd2;" horiz-adv-x="1650" d="M94 711q0 164 53.5 301t150.5 237.5t233 155.5t300 55q182 -2 318.5 -65.5t226.5 -168t135 -238.5t45 -277q0 -139 -45 -272.5t-135 -238t-226 -168t-323 -63.5q-186 0 -324 62.5t-228.5 167t-135.5 237.5t-45 275zM311 711q0 -102 30 -199.5t94.5 -173.5t161.5 -121 t232 -45t231.5 47t159 124t92 173.5t29.5 194.5q0 100 -29.5 198.5t-92 176t-158.5 127t-230 51.5q-127 0 -224 -43t-162.5 -119t-99.5 -176.5t-34 -214.5zM549 1892h248l151 -268v-10h-184z" />
<glyph unicode="&#xd3;" horiz-adv-x="1650" d="M94 711q0 164 53.5 301t150.5 237.5t233 155.5t300 55q182 -2 318.5 -65.5t226.5 -168t135 -238.5t45 -277q0 -139 -45 -272.5t-135 -238t-226 -168t-323 -63.5q-186 0 -324 62.5t-228.5 167t-135.5 237.5t-45 275zM311 711q0 -102 30 -199.5t94.5 -173.5t161.5 -121 t232 -45t231.5 47t159 124t92 173.5t29.5 194.5q0 100 -29.5 198.5t-92 176t-158.5 127t-230 51.5q-127 0 -224 -43t-162.5 -119t-99.5 -176.5t-34 -214.5zM727 1606v12l150 270h249l-215 -282h-184z" />
<glyph unicode="&#xd4;" horiz-adv-x="1650" d="M94 711q0 164 53.5 301t150.5 237.5t233 155.5t300 55q182 -2 318.5 -65.5t226.5 -168t135 -238.5t45 -277q0 -139 -45 -272.5t-135 -238t-226 -168t-323 -63.5q-186 0 -324 62.5t-228.5 167t-135.5 237.5t-45 275zM311 711q0 -102 30 -199.5t94.5 -173.5t161.5 -121 t232 -45t231.5 47t159 124t92 173.5t29.5 194.5q0 100 -29.5 198.5t-92 176t-158.5 127t-230 51.5q-127 0 -224 -43t-162.5 -119t-99.5 -176.5t-34 -214.5zM492 1604v14l301 278h118l301 -278v-14h-208l-152 139l-154 -139h-206z" />
<glyph unicode="&#xd5;" horiz-adv-x="1650" d="M94 711q0 164 53.5 301t150.5 237.5t233 155.5t300 55q182 -2 318.5 -65.5t226.5 -168t135 -238.5t45 -277q0 -139 -45 -272.5t-135 -238t-226 -168t-323 -63.5q-186 0 -324 62.5t-228.5 167t-135.5 237.5t-45 275zM311 711q0 -102 30 -199.5t94.5 -173.5t161.5 -121 t232 -45t231.5 47t159 124t92 173.5t29.5 194.5q0 100 -29.5 198.5t-92 176t-158.5 127t-230 51.5q-127 0 -224 -43t-162.5 -119t-99.5 -176.5t-34 -214.5zM526 1667q25 96 96.5 144.5t157.5 21.5q12 -4 28.5 -11t34 -15.5t33 -15.5t25.5 -9q27 -6 58.5 3t48.5 54l135 -59 q-12 -57 -40 -94t-62.5 -56.5t-72.5 -22.5t-71 9q-12 2 -29.5 11t-35 18.5t-34 17.5t-28.5 10q-27 6 -57.5 -6t-50.5 -59z" />
<glyph unicode="&#xd6;" horiz-adv-x="1650" d="M94 711q0 164 53.5 301t150.5 237.5t233 155.5t300 55q182 -2 318.5 -65.5t226.5 -168t135 -238.5t45 -277q0 -139 -45 -272.5t-135 -238t-226 -168t-323 -63.5q-186 0 -324 62.5t-228.5 167t-135.5 237.5t-45 275zM311 711q0 -102 30 -199.5t94.5 -173.5t161.5 -121 t232 -45t231.5 47t159 124t92 173.5t29.5 194.5q0 100 -29.5 198.5t-92 176t-158.5 127t-230 51.5q-127 0 -224 -43t-162.5 -119t-99.5 -176.5t-34 -214.5zM485 1714q0 63 40 94t87 31t87 -31t40 -94q0 -61 -40 -93t-87 -32t-87 32t-40 93zM969 1712q0 63 40 95t87 32 t87 -32t40 -93t-40 -93t-87 -32t-87 31t-40 92z" />
<glyph unicode="&#xd7;" horiz-adv-x="940" d="M121 436l221 217l-217 215l133 129l211 -215l215 217l131 -129l-219 -225l223 -221l-129 -123l-217 223l-217 -219z" />
<glyph unicode="&#xd8;" horiz-adv-x="1650" d="M96 713q0 147 46 282t138.5 238.5t229.5 166t319 62.5q82 0 155 -14t138 -39l88 158h215l-147 -248q141 -106 209.5 -267t68.5 -341q0 -139 -44 -272.5t-134 -238t-227 -168t-324 -63.5q-164 0 -295 51l-98 -172h-211l150 263q-70 51 -122 118.5t-86 145.5t-51.5 164 t-17.5 174zM313 711q0 -117 41 -225.5t127 -186.5l535 934q-84 31 -185 31q-135 0 -233 -47.5t-161.5 -124t-94.5 -177t-29 -204.5zM639 203q43 -12 90 -19.5t102 -7.5q135 0 231.5 47t158 122t91 171.5t29.5 194.5q0 119 -40.5 232.5t-126.5 193.5z" />
<glyph unicode="&#xd9;" horiz-adv-x="1685" d="M78 1237v197h557v-197h-184v-651q0 -104 31.5 -182t87 -131.5t127 -80t151.5 -26.5t150.5 27.5t125 82t85 133t30.5 181.5v647h-184v197h555v-197h-162v-651q0 -158 -50 -274.5t-133 -193.5t-191.5 -115t-225.5 -38q-113 0 -222.5 37t-195.5 112.5t-139 193.5t-53 278 v651h-160zM547 1806h246l153 -268v-12h-184z" />
<glyph unicode="&#xda;" horiz-adv-x="1685" d="M78 1237v197h557v-197h-184v-651q0 -104 31.5 -182t87 -131.5t127 -80t151.5 -26.5t150.5 27.5t125 82t85 133t30.5 181.5v647h-184v197h555v-197h-162v-651q0 -158 -50 -274.5t-133 -193.5t-191.5 -115t-225.5 -38q-113 0 -222.5 37t-195.5 112.5t-139 193.5t-53 278 v651h-160zM733 1522v10l160 260h260l-227 -270h-193z" />
<glyph unicode="&#xdb;" horiz-adv-x="1685" d="M78 1237v197h557v-197h-184v-651q0 -104 31.5 -182t87 -131.5t127 -80t151.5 -26.5t150.5 27.5t125 82t85 133t30.5 181.5v647h-184v197h555v-197h-162v-651q0 -158 -50 -274.5t-133 -193.5t-191.5 -115t-225.5 -38q-113 0 -222.5 37t-195.5 112.5t-139 193.5t-53 278 v651h-160zM463 1554v17l311 287h121l309 -287v-17h-207l-163 150l-164 -150h-207z" />
<glyph unicode="&#xdc;" horiz-adv-x="1685" d="M78 1237v197h557v-197h-184v-651q0 -104 31.5 -182t87 -131.5t127 -80t151.5 -26.5t150.5 27.5t125 82t85 133t30.5 181.5v647h-184v197h555v-197h-162v-651q0 -158 -50 -274.5t-133 -193.5t-191.5 -115t-225.5 -38q-113 0 -222.5 37t-195.5 112.5t-139 193.5t-53 278 v651h-160zM360 1671q0 63 40 94t87 31t86 -30.5t39 -92.5q0 -61 -39 -92t-86 -31t-87 31t-40 90zM1053 1671q0 63 40 94t87 31t86 -30.5t39 -94.5q0 -61 -39 -92t-86 -31t-87 31t-40 92z" />
<glyph unicode="&#xdd;" horiz-adv-x="1441" d="M39 1237v197h555v-197h-156l111 -172l170 -272l184 280l109 164h-156v197h553v-197h-139l-443 -651v-391h179v-195h-574v195h176v391l-428 651h-141zM645 1540v12l152 269h247l-215 -281h-184z" />
<glyph unicode="&#xde;" horiz-adv-x="1433" d="M104 0v193h172v1054h-172v189h576v-189h-191v-106h410q119 0 209 -38t149.5 -98.5t88 -137t28.5 -152.5q0 -78 -28.5 -154t-89 -136t-150.5 -98t-209 -38h-408v-96h191v-193h-576zM492 483h407q68 0 118 21.5t84 55.5t51 75t17 82t-17 83t-51 75.5t-84 55t-118 21.5h-407 v-469z" />
<glyph unicode="&#xdf;" horiz-adv-x="1323" d="M59 0v178h154v881q0 100 40 176t106.5 125t150.5 73.5t170 24.5q98 0 184 -23.5t149.5 -71.5t100.5 -121t37 -173q0 -90 -54.5 -164t-152.5 -100q-14 -4 -78 -8q27 2 50.5 0t27.5 -4q82 -23 139.5 -63t92 -90t50 -106.5t15.5 -111.5q0 -115 -36 -198t-97 -137t-144 -80.5 t-178 -26.5q-53 0 -110.5 7t-116.5 23l-4 185q113 -37 197 -37q66 0 118 19.5t88.5 54t56 79.5t19.5 99q0 78 -30.5 132t-80 89t-112.5 51t-129 16h-121v191h113q43 0 89 8t85 28.5t64.5 54.5t27.5 85q2 59 -21.5 98t-60.5 62.5t-83 33t-91 9.5q-123 0 -188.5 -56.5 t-69.5 -154.5l4 -1057h-371z" />
<glyph unicode="&#xe0;" horiz-adv-x="1398" d="M84 506q0 125 41 222t112.5 165t168 103.5t206.5 35.5q109 0 202 -44t151 -130l2 156h348v-185h-152v-649h158v-180h-338q0 -10 -4 14.5t-8 55t-8.5 54t-4.5 13.5q-31 -47 -70.5 -78.5t-85.5 -51t-95.5 -28t-98.5 -8.5q-113 0 -208 36t-165.5 105.5t-110.5 168t-40 225.5 zM285 498q0 -78 25.5 -140.5t70.5 -107.5t105 -69.5t132 -24.5q82 0 145.5 26.5t109 71.5t70 104.5t28.5 124.5q2 72 -18.5 136.5t-65.5 112.5t-112.5 76t-156.5 28q-70 0 -131 -25t-106 -69t-70.5 -106.5t-25.5 -137.5zM397 1440h236l117 -240v-12h-177z" />
<glyph unicode="&#xe1;" horiz-adv-x="1398" d="M84 506q0 125 41 222t112.5 165t168 103.5t206.5 35.5q109 0 202 -44t151 -130l2 156h348v-185h-152v-649h158v-180h-338q0 -10 -4 14.5t-8 55t-8.5 54t-4.5 13.5q-31 -47 -70.5 -78.5t-85.5 -51t-95.5 -28t-98.5 -8.5q-113 0 -208 36t-165.5 105.5t-110.5 168t-40 225.5 zM285 498q0 -78 25.5 -140.5t70.5 -107.5t105.5 -69.5t131.5 -24.5q82 0 145.5 26.5t109 71.5t70 104.5t28.5 124.5q2 72 -18.5 136.5t-65.5 112.5t-113 76t-156 28q-70 0 -131 -25t-106 -69t-70.5 -106.5t-25.5 -137.5zM504 1188v12l117 240h235l-174 -252h-178z" />
<glyph unicode="&#xe2;" horiz-adv-x="1398" d="M84 506q0 125 41 222t112.5 165t168 103.5t206.5 35.5q109 0 202 -44t151 -130l2 156h348v-185h-152v-649h158v-180h-338q0 -10 -4 14.5t-8 55t-8.5 54t-4.5 13.5q-31 -47 -70.5 -78.5t-85.5 -51t-95.5 -28t-98.5 -8.5q-113 0 -208 36t-165.5 105.5t-110.5 168t-40 225.5 zM285 498q0 -78 25.5 -140.5t70.5 -107.5t105.5 -69.5t131.5 -24.5q82 0 145.5 26.5t109 71.5t70 104.5t28.5 124.5q2 72 -18.5 136.5t-65.5 112.5t-113 76t-156 28q-70 0 -131 -25t-106 -69t-70.5 -106.5t-25.5 -137.5zM313 1155v19l291 286h115l293 -289v-16h-197 l-153 152l-152 -152h-197z" />
<glyph unicode="&#xe3;" horiz-adv-x="1398" d="M84 506q0 125 41 222t112.5 165t168 103.5t206.5 35.5q109 0 202 -44t151 -130l2 156h348v-185h-152v-649h158v-180h-338q0 -10 -4 14.5t-8 55t-8.5 54t-4.5 13.5q-31 -47 -70.5 -78.5t-85.5 -51t-95.5 -28t-98.5 -8.5q-113 0 -208 36t-165.5 105.5t-110.5 168t-40 225.5 zM285 498q0 -78 25.5 -140.5t70.5 -107.5t105 -69.5t132 -24.5q82 0 145.5 26.5t109 71.5t70 104.5t28.5 124.5q2 72 -18.5 136.5t-65.5 112.5t-112.5 76t-156.5 28q-70 0 -131 -25t-106 -69t-70.5 -106.5t-25.5 -137.5zM354 1274q25 96 98.5 142t163.5 20q12 -2 30 -10.5 t36 -17.5t35.5 -17.5t27.5 -10.5q29 -6 59 3.5t44 50.5l141 -56q-14 -55 -42.5 -91t-63.5 -55.5t-75 -22.5t-75 10q-12 2 -29.5 10t-36 17t-35 16.5t-26.5 9.5q-29 6 -61.5 -5.5t-50.5 -58.5z" />
<glyph unicode="&#xe4;" horiz-adv-x="1398" d="M84 506q0 125 41 222t112.5 165t168 103.5t206.5 35.5q109 0 202 -44t151 -130l2 156h348v-185h-152v-649h158v-180h-338q0 -10 -4 14.5t-8 55t-8.5 54t-4.5 13.5q-31 -47 -70.5 -78.5t-85.5 -51t-95.5 -28t-98.5 -8.5q-113 0 -208 36t-165.5 105.5t-110.5 168t-40 225.5 zM285 498q0 -78 25.5 -140.5t70.5 -107.5t105 -69.5t132 -24.5q82 0 145.5 26.5t109 71.5t70 104.5t28.5 124.5q2 72 -18.5 136.5t-65.5 112.5t-112.5 76t-156.5 28q-70 0 -131 -25t-106 -69t-70.5 -106.5t-25.5 -137.5zM293 1317q0 63 40 94t87 31t86 -31t39 -92t-39 -92 t-86 -31t-87 30.5t-40 90.5zM780 1317q0 63 40 94t87 31t86 -31t39 -94q0 -61 -39 -92t-86 -31t-87 30.5t-40 92.5z" />
<glyph unicode="&#xe5;" horiz-adv-x="1398" d="M84 506q0 125 41 222t112.5 165t168 103.5t206.5 35.5q109 0 202 -44t151 -130l2 156h348v-185h-152v-649h158v-180h-338q0 -10 -4 14.5t-8 55t-8.5 54t-4.5 13.5q-31 -47 -70.5 -78.5t-85.5 -51t-95.5 -28t-98.5 -8.5q-113 0 -208 36t-165.5 105.5t-110.5 168t-40 225.5 zM285 498q0 -78 25.5 -140.5t70.5 -107.5t105 -69.5t132 -24.5q82 0 145.5 26.5t109 71.5t70 104.5t28.5 124.5q2 72 -18.5 136.5t-65.5 112.5t-112.5 76t-156.5 28q-70 0 -131 -25t-106 -69t-70.5 -106.5t-25.5 -137.5zM422 1335q0 51 20.5 90t54 66t77.5 40t90 13 q45 0 90 -13t78.5 -39t55 -64.5t21.5 -90.5q0 -49 -20.5 -87t-54 -62.5t-78.5 -36.5t-94 -12q-104 0 -172 55t-68 141zM557 1343q0 -29 23.5 -57.5t83.5 -28.5q61 0 86.5 29t25.5 57q-2 29 -27.5 58t-84.5 29t-83 -30t-24 -57z" />
<glyph unicode="&#xe6;" horiz-adv-x="2048" d="M84 504q0 123 41 221t111.5 165.5t166 102.5t203.5 33q104 0 199.5 -43t155.5 -123v154h161v-152q68 90 163 131t204 39q106 0 204.5 -41t168 -118.5t102.5 -190.5t8 -256h-831q6 -57 33.5 -105.5t72.5 -83t104.5 -54t129.5 -19.5q39 0 82 7t83 21.5t74.5 35t59.5 46.5 l131 -124q-39 -43 -90.5 -76t-108.5 -54.5t-118.5 -33t-118.5 -11.5q-123 0 -213.5 44t-145.5 126v-145h-155v147q-63 -92 -161 -135t-196 -43q-111 0 -206 37t-164.5 105.5t-109.5 168t-40 224.5zM285 492q0 -76 25.5 -138.5t70.5 -107.5t106.5 -69.5t130.5 -24.5 q86 0 152 30.5t110 78.5t66.5 109.5t22.5 123.5q0 61 -23.5 121.5t-69 108.5t-109.5 77.5t-146 29.5q-70 0 -131.5 -24.5t-106.5 -68.5t-71.5 -107.5t-26.5 -138.5zM1143 590l635 -6q-10 129 -93 196.5t-212 67.5q-59 0 -112.5 -16.5t-98.5 -49t-76 -81t-43 -111.5z" />
<glyph unicode="&#xe7;" horiz-adv-x="1079" d="M84 506q0 143 45 242.5t121 163t172 92t199 28.5q98 0 188 -23.5t176 -64.5l-10 -276h-180v161q-35 14 -85.5 18.5t-84.5 4.5q-78 -2 -140.5 -29.5t-106.5 -74t-67.5 -108.5t-23.5 -134q0 -86 30.5 -149.5t79.5 -103.5t111.5 -59.5t126.5 -19.5q68 0 137.5 23.5 t118.5 78.5l131 -137q-78 -78 -166 -113.5t-186 -43.5h-15l-26 -93q70 0 113.5 -19.5t67.5 -51t28 -71.5t-4 -81q-20 -94 -95 -136t-166 -38q-72 4 -139 38t-108 91l96 82q16 -20 61 -42.5t90 -27.5q35 -4 64 8.5t37 45.5q8 27 -4.5 50t-38 36.5t-61 15.5t-74.5 -16l-45 34 l57 187q-88 18 -166 57t-135 101.5t-90 150.5t-33 203z" />
<glyph unicode="&#xe8;" horiz-adv-x="1193" d="M82 512q0 113 39 210t109.5 166.5t169 109.5t214.5 40q121 0 220.5 -37.5t168 -114.5t100.5 -190.5t17 -267.5h-831q6 -57 33.5 -105.5t72.5 -83t104.5 -54t131.5 -19.5q39 0 81 7t82 21.5t74.5 35t59.5 46.5l133 -124q-39 -43 -90 -76t-108.5 -54.5t-119 -33 t-118.5 -11.5q-123 0 -223.5 39t-171 109t-109.5 168t-39 219zM289 596h637q-10 127 -93 193.5t-212 66.5q-59 0 -113.5 -17.5t-98.5 -50t-76 -82t-44 -110.5zM360 1450h250l150 -268v-13h-185z" />
<glyph unicode="&#xe9;" horiz-adv-x="1193" d="M82 512q0 113 39 210t109.5 166.5t168.5 109.5t215 40q121 0 220.5 -37.5t168 -114.5t100.5 -190.5t17 -267.5h-831q6 -57 33.5 -105.5t72.5 -83t104.5 -54t131.5 -19.5q39 0 81 7t82 21.5t74.5 35t59.5 46.5l133 -124q-39 -43 -90 -76t-108.5 -54.5t-119 -33 t-118.5 -11.5q-123 0 -223.5 39t-171 109t-109.5 168t-39 219zM289 596h637q-10 127 -93 193.5t-212 66.5q-59 0 -113.5 -17.5t-98.5 -50t-76 -82t-44 -110.5zM483 1174v10l152 268h248l-215 -278h-185z" />
<glyph unicode="&#xea;" horiz-adv-x="1193" d="M82 512q0 113 39 210t109.5 166.5t169 109.5t214.5 40q121 0 220.5 -37.5t168 -114.5t100.5 -190.5t17 -267.5h-831q6 -57 33.5 -105.5t72.5 -83t104.5 -54t131.5 -19.5q39 0 81 7t82 21.5t74.5 35t59.5 46.5l133 -124q-39 -43 -90 -76t-108.5 -54.5t-119 -33 t-118.5 -11.5q-123 0 -223.5 39t-171 109t-109.5 168t-39 219zM262 1153v16l307 283h121l307 -283v-16h-211l-155 143l-158 -143h-211zM289 596h637q-10 127 -93 193.5t-212 66.5q-59 0 -113.5 -17.5t-98.5 -50t-76 -82t-44 -110.5z" />
<glyph unicode="&#xeb;" horiz-adv-x="1193" d="M82 512q0 113 39 210t109.5 166.5t169 109.5t214.5 40q121 0 220.5 -37.5t168 -114.5t100.5 -190.5t17 -267.5h-831q6 -57 33.5 -105.5t72.5 -83t104.5 -54t131.5 -19.5q39 0 81 7t82 21.5t74.5 35t59.5 46.5l133 -124q-39 -43 -90 -76t-108.5 -54.5t-119 -33 t-118.5 -11.5q-123 0 -223.5 39t-171 109t-109.5 168t-39 219zM276 1329q0 63 40 95t88.5 32t88 -32t39.5 -93q0 -63 -39.5 -95t-88 -32t-88.5 32t-40 93zM289 596h637q-10 127 -93 193.5t-212 66.5q-59 0 -113.5 -17.5t-98.5 -50t-76 -82t-44 -110.5zM723 1329q0 63 40 94 t88 31t88 -31t40 -94t-40 -95t-88 -32t-88 32t-40 95z" />
<glyph unicode="&#xec;" horiz-adv-x="655" d="M80 0v182h158v656h-154v178h356v-834h150v-182h-510zM139 1440h219l84 -273v-12h-170z" />
<glyph unicode="&#xed;" horiz-adv-x="657" d="M82 0v182h156v656h-154v178h358v-834h150v-182h-510zM211 1157v12l84 273h217l-131 -285h-170z" />
<glyph unicode="&#xee;" horiz-adv-x="657" d="M49 1151v31l225 258h99l221 -262v-27h-172l-100 100l-103 -100h-170zM82 0v182h156v656h-154v178h358v-834h150v-182h-510z" />
<glyph unicode="&#xef;" horiz-adv-x="657" d="M31 1274q0 61 40 92t87 31t87 -31t40 -92t-40 -93t-87 -32t-87 31.5t-40 93.5zM82 0v182h156v656h-154v178h358v-834h150v-182h-510zM356 1274q0 61 40 92t87 31t87 -31t40 -92t-40 -93t-87 -32t-87 31.5t-40 93.5z" />
<glyph unicode="&#xf0;" horiz-adv-x="1222" d="M84 485q0 88 28.5 173t85 154t141.5 114t198 55q31 4 73.5 5t92 -9t100.5 -34.5t98 -68.5q-16 49 -50 92.5t-73 77t-79 58t-66 39.5l-72 -86l-106 69l65 84q-41 23 -92 36t-94 24l41 164q78 -16 141.5 -35t120.5 -47l94 118l109 -73l-86 -109q109 -80 180.5 -169 t114.5 -186t61 -201.5t18 -215.5q0 -119 -35.5 -217t-103 -169t-164 -111t-217.5 -40q-131 0 -229 43t-163.5 115t-98.5 163t-33 187zM293 487q0 -59 19.5 -118.5t59.5 -105.5t98 -74.5t138 -28.5q78 0 138.5 27.5t101.5 73.5t62.5 105.5t21.5 120.5t-21.5 120t-62.5 104 t-101.5 72.5t-138.5 27.5q-80 0 -138 -27.5t-98 -73.5t-59.5 -103.5t-19.5 -119.5z" />
<glyph unicode="&#xf1;" horiz-adv-x="1388" d="M82 0v182h164v654h-160v180h342l14 -137q74 86 145.5 118.5t170.5 32.5q229 0 337.5 -126t108.5 -355v-367h164v-182h-504v182h137v365q0 154 -56 223.5t-206 69.5q-129 0 -211 -80t-82 -223v-355h160v-182h-524zM397 1303q25 98 97.5 146t160.5 21q12 -4 29.5 -12 t35 -17t34 -18.5t28.5 -11.5q25 -6 54.5 3t44.5 52l137 -57q-12 -57 -40 -94t-63.5 -56.5t-73.5 -22.5t-73 9q-12 2 -29.5 10.5t-35 17.5t-33 17t-25.5 10q-29 6 -60.5 -6t-49.5 -59z" />
<glyph unicode="&#xf2;" horiz-adv-x="1222" d="M82 504q0 115 39 213t109.5 168.5t167 110.5t212.5 40q119 0 217.5 -40t168 -110.5t107.5 -167.5t38 -214q0 -113 -39 -208t-108.5 -166t-167 -110.5t-216.5 -39.5q-117 0 -214 39.5t-166.5 110.5t-108.5 166t-39 208zM281 1532l333 -82l177 -342l-54 66l-205 2zM285 504 q0 -72 23.5 -132.5t65.5 -105.5t102.5 -70.5t133.5 -25.5q74 0 134.5 25.5t103.5 70.5t67.5 105.5t24.5 132.5q0 76 -24.5 140.5t-68.5 110.5t-104.5 71.5t-130.5 25.5q-74 0 -134 -25.5t-103 -71.5t-66.5 -110.5t-23.5 -140.5z" />
<glyph unicode="&#xf3;" horiz-adv-x="1222" d="M82 504q0 115 39 213t109.5 168.5t167 110.5t212.5 40q119 0 217.5 -40t168 -110.5t107.5 -167.5t38 -214q0 -113 -39 -208t-108.5 -166t-167 -110.5t-216.5 -39.5q-117 0 -214 39.5t-166.5 110.5t-108.5 166t-39 208zM285 504q0 -72 23.5 -132.5t65.5 -105.5 t102.5 -70.5t133.5 -25.5q74 0 134.5 25.5t103.5 70.5t67.5 105.5t24.5 132.5q0 76 -24.5 140.5t-68.5 110.5t-104.5 71.5t-130.5 25.5q-74 0 -134 -25.5t-103 -71.5t-66.5 -110.5t-23.5 -140.5zM498 1165v11l147 258h248l-213 -269h-182z" />
<glyph unicode="&#xf4;" horiz-adv-x="1222" d="M82 504q0 115 39 213t109.5 168.5t167 110.5t212.5 40q119 0 217.5 -40t168 -110.5t107.5 -167.5t38 -214q0 -113 -39 -208t-108.5 -166t-167 -110.5t-216.5 -39.5q-117 0 -214 39.5t-166.5 110.5t-108.5 166t-39 208zM240 1157v17l311 280h121l313 -280v-17h-211 l-162 143l-161 -143h-211zM285 504q0 -72 23.5 -132.5t65.5 -105.5t102.5 -70.5t133.5 -25.5q74 0 134.5 25.5t103.5 70.5t67.5 105.5t24.5 132.5q0 76 -24.5 140.5t-68.5 110.5t-104.5 71.5t-130.5 25.5q-74 0 -134 -25.5t-103 -71.5t-66.5 -110.5t-23.5 -140.5z" />
<glyph unicode="&#xf5;" horiz-adv-x="1222" d="M82 504q0 115 39 213t109.5 168.5t167 110.5t212.5 40q119 0 217.5 -40t168 -110.5t107.5 -167.5t38 -214q0 -113 -39 -208t-108.5 -166t-167 -110.5t-216.5 -39.5q-117 0 -214 39.5t-166.5 110.5t-108.5 166t-39 208zM285 504q0 -72 23.5 -132.5t65.5 -105.5 t102.5 -70.5t133.5 -25.5q74 0 134.5 25.5t103.5 70.5t67.5 105.5t24.5 132.5q0 76 -24.5 140.5t-68.5 110.5t-104.5 71.5t-130.5 25.5q-74 0 -134 -25.5t-103 -71.5t-66.5 -110.5t-23.5 -140.5zM303 1278q25 94 96.5 139.5t159.5 22.5q14 -4 32.5 -12.5t37 -17.5t35 -16.5 t28.5 -7.5q25 -4 54.5 6.5t46.5 51.5l135 -58q-12 -55 -40 -92t-62.5 -56t-72.5 -22.5t-73 9.5q-12 2 -28.5 10t-34 17.5t-34 16.5t-28.5 11q-29 8 -62.5 -3t-56.5 -63z" />
<glyph unicode="&#xf6;" horiz-adv-x="1222" d="M82 504q0 115 39 213t109.5 168.5t167 110.5t212.5 40q119 0 217.5 -40t168 -110.5t107.5 -167.5t38 -214q0 -113 -39 -208t-108.5 -166t-167 -110.5t-216.5 -39.5q-117 0 -214 39.5t-166.5 110.5t-108.5 166t-39 208zM252 1303q0 63 40 96t89 33t89 -33t40 -96t-40 -95 t-89 -32t-89 31.5t-40 95.5zM285 504q0 -72 23.5 -132.5t65.5 -105.5t102.5 -70.5t133.5 -25.5q74 0 134.5 25.5t103.5 70.5t67.5 105.5t24.5 132.5q0 76 -24.5 140.5t-68.5 110.5t-104.5 71.5t-130.5 25.5q-74 0 -134 -25.5t-103 -71.5t-66.5 -110.5t-23.5 -140.5z M700 1300q0 63 40 95t89.5 32t89 -30.5t39.5 -93.5t-39.5 -95t-89 -32t-89.5 31.5t-40 92.5z" />
<glyph unicode="&#xf7;" horiz-adv-x="1124" d="M111 569v201h903v-201h-903zM440 305q0 61 39 93t87 32t87 -32t39 -93t-39 -93t-87 -32t-87 32t-39 93zM440 1026q0 61 39 93t87 32t87 -32t39 -93t-39 -93t-87 -32t-87 32t-39 93z" />
<glyph unicode="&#xf8;" horiz-adv-x="1208" d="M82 504q0 113 38 209t106.5 166.5t163.5 110.5t212 40q104 0 195 -37l75 129h195l-123 -211q86 -72 134 -176t48 -231q0 -113 -37.5 -208t-106.5 -166t-165 -110.5t-215 -39.5q-51 0 -99 8t-91 24l-82 -139h-193l129 219q-88 70 -136 176.5t-48 235.5zM287 506 q0 -72 21.5 -132.5t62.5 -101.5l336 557q-47 18 -101 19q-74 0 -133 -26.5t-100 -74t-63.5 -110t-22.5 -131.5zM520 184q37 -14 88 -14q74 0 133.5 26.5t101.5 71.5t63.5 106.5t21.5 131.5q0 68 -22.5 125t-59.5 102z" />
<glyph unicode="&#xf9;" horiz-adv-x="1382" d="M31 838v178h354v-547q0 -143 65.5 -217t221.5 -74q63 0 116.5 23.5t91.5 64.5t58 96.5t20 118.5v357h-163v178h366v-834h162v-182h-319l-37 139q-72 -82 -157 -115.5t-181 -35.5q-117 0 -201 33.5t-138 97t-81 151.5t-27 197v371h-151zM344 1444h246l153 -268v-11h-184z " />
<glyph unicode="&#xfa;" horiz-adv-x="1382" d="M31 838v178h354v-547q0 -143 65.5 -217t221.5 -74q63 0 116.5 23.5t91.5 64.5t58 96.5t20 118.5v357h-163v178h366v-834h162v-182h-319l-37 139q-72 -82 -157 -115.5t-181 -35.5q-117 0 -201 33.5t-138 97t-81 151.5t-27 197v371h-151zM532 1165v13l152 268h248 l-215 -281h-185z" />
<glyph unicode="&#xfb;" horiz-adv-x="1382" d="M31 838v178h354v-547q0 -143 65.5 -217t221.5 -74q63 0 116.5 23.5t91.5 64.5t58 96.5t20 118.5v357h-163v178h366v-834h162v-182h-319l-37 139q-72 -82 -157 -115.5t-181 -35.5q-117 0 -201 33.5t-138 97t-81 151.5t-27 197v371h-151zM248 1157v17l311 286h121l311 -286 v-17h-209l-164 150l-161 -150h-209z" />
<glyph unicode="&#xfc;" horiz-adv-x="1382" d="M31 838v178h354v-547q0 -143 65.5 -217t221.5 -74q63 0 116.5 23.5t91.5 64.5t58 96.5t20 118.5v357h-163v178h366v-834h162v-182h-319l-37 139q-72 -82 -157 -115.5t-181 -35.5q-117 0 -201 33.5t-138 97t-81 151.5t-27 197v371h-151zM262 1303q0 61 39 92.5t86 31.5 t86 -30.5t39 -91.5t-39 -92t-86 -31t-86 29.5t-39 91.5zM750 1303q0 61 38.5 92.5t85.5 31.5t86 -31.5t39 -92.5t-39 -92t-86 -31t-85.5 30.5t-38.5 92.5z" />
<glyph unicode="&#xfd;" horiz-adv-x="1249" d="M33 836v180h477v-178h-115l140 -314l104 -288l98 280l125 320h-151v180h501v-180h-129l-450 -1098q-39 -92 -95.5 -141.5t-124 -63.5t-143 2t-151.5 55l74 168q33 -16 68.5 -27.5t68 -10.5t60.5 17.5t48 59.5l80 215l-350 824h-135zM512 1161v10l150 269h249l-215 -279 h-184z" />
<glyph unicode="&#xfe;" horiz-adv-x="1310" d="M-10 1249v181h364v-592q27 45 68 80.5t89 60.5t100.5 38t105.5 13q109 -2 202 -37t161.5 -100.5t107.5 -163.5t39 -225q0 -129 -39 -228.5t-107.5 -166t-162 -100.5t-201.5 -34q-49 0 -100.5 11.5t-98.5 34t-89 59.5t-73 88v-408h166v-182h-508v182h140v1489h-164z M373 502q0 -70 25.5 -130.5t69.5 -104.5t103 -69.5t127 -25.5t126.5 21.5t103.5 63.5t70.5 103.5t25.5 143.5q0 80 -25.5 141.5t-70.5 102t-103.5 62t-126.5 21.5q-70 0 -129 -25.5t-103 -70.5t-68.5 -104.5t-24.5 -128.5z" />
<glyph unicode="&#xff;" horiz-adv-x="1249" d="M33 836v180h477v-178h-115l140 -314l104 -288l98 280l125 320h-151v180h501v-180h-129l-450 -1098q-39 -92 -95.5 -141.5t-124 -63.5t-143 2t-151.5 55l74 168q33 -16 68.5 -27.5t68 -10.5t60.5 17.5t48 59.5l80 215l-350 824h-135zM260 1292q0 63 40 94t87 31t86 -30.5 t39 -92.5q0 -61 -39 -92t-86 -31t-87 31t-40 90zM748 1292q0 63 39.5 94t86.5 31t86 -30.5t39 -94.5q0 -61 -39 -92t-86 -31t-86.5 31t-39.5 92z" />
<glyph unicode="&#x152;" horiz-adv-x="2093" d="M94 719q0 154 46 288t137.5 233t227.5 157.5t318 58.5q29 0 63 -3t64.5 -7t52 -8t27.5 -4h932v-414h-190l-11 221h-532v-414h545v-194h-545v-428h561l8 217h193v-422h-961l-22 -5q-23 -5 -55.5 -10t-67.5 -9.5t-62 -4.5q-184 0 -321 60.5t-227.5 163t-135.5 237.5 t-45 287zM313 717q0 -100 32 -200.5t96.5 -180.5t161.5 -129t226 -49q115 0 201 30v1055q-88 35 -207 35q-129 0 -225 -46t-158.5 -124t-94.5 -179.5t-32 -211.5z" />
<glyph unicode="&#x153;" horiz-adv-x="1992" d="M82 506q0 113 38 210t106.5 167.5t163.5 111.5t212 41q139 0 245.5 -61.5t166.5 -171.5q51 100 158.5 167.5t246.5 67.5q121 0 219.5 -37.5t166 -114.5t98 -190.5t16.5 -267.5q-84 0 -189.5 1t-216 1h-217t-188.5 -2q12 -115 99 -188.5t229 -73.5q78 0 161.5 28.5 t131.5 81.5l131 -124q-78 -88 -194 -131.5t-236 -43.5q-145 0 -255 63.5t-167 172.5q-66 -111 -165.5 -171t-240.5 -60q-117 0 -213 39.5t-164.5 110.5t-105.5 166t-37 208zM289 502q0 -72 21.5 -132.5t63.5 -105.5t100 -70.5t132 -25.5t132.5 25.5t99.5 70.5t62.5 105.5 t21.5 132.5q0 70 -22.5 132t-64.5 108t-100.5 74t-128.5 28q-74 0 -132 -31t-100 -80t-63.5 -110.5t-21.5 -120.5zM1106 598l620 -6q-10 129 -91 196.5t-210 67.5q-59 0 -111 -16.5t-95 -49t-72 -80.5t-41 -112z" />
<glyph unicode="&#x178;" horiz-adv-x="1441" d="M39 1237v197h555v-197h-156l111 -172l170 -272l184 280l109 164h-156v197h553v-197h-139l-443 -651v-391h179v-195h-574v195h176v391l-428 651h-141zM289 1647q0 63 39 94t86 33q47 0 86 -31t39 -92t-39 -92t-86 -33q-47 0 -86 30.5t-39 90.5zM909 1647q0 63 39 94t86 31 t87 -31t40 -94q0 -61 -40 -92t-87 -31t-86 30.5t-39 92.5z" />
<glyph unicode="&#x2c6;" horiz-adv-x="868" d="M41 1149v16l311 287h121l311 -287v-16h-209l-163 149l-162 -149h-209z" />
<glyph unicode="&#x2dc;" horiz-adv-x="768" d="M55 1362q25 98 97.5 146.5t160.5 21.5q12 -4 29.5 -12.5t35 -17.5t34 -18t28.5 -12q25 -6 54.5 3.5t44.5 52.5l137 -58q-12 -57 -40 -94t-63.5 -56.5t-73.5 -22.5t-73 10q-12 2 -29.5 10t-35 17t-33 17.5t-25.5 10.5q-29 6 -60.5 -6.5t-49.5 -59.5z" />
<glyph unicode="&#x2000;" horiz-adv-x="948" />
<glyph unicode="&#x2001;" horiz-adv-x="1896" />
<glyph unicode="&#x2002;" horiz-adv-x="948" />
<glyph unicode="&#x2003;" horiz-adv-x="1896" />
<glyph unicode="&#x2004;" horiz-adv-x="632" />
<glyph unicode="&#x2005;" horiz-adv-x="474" />
<glyph unicode="&#x2006;" horiz-adv-x="316" />
<glyph unicode="&#x2007;" horiz-adv-x="316" />
<glyph unicode="&#x2008;" horiz-adv-x="237" />
<glyph unicode="&#x2009;" horiz-adv-x="379" />
<glyph unicode="&#x200a;" horiz-adv-x="105" />
<glyph unicode="&#x2010;" horiz-adv-x="1007" d="M133 492v192h741v-192h-741z" />
<glyph unicode="&#x2011;" horiz-adv-x="1007" d="M133 492v192h741v-192h-741z" />
<glyph unicode="&#x2012;" horiz-adv-x="1007" d="M133 492v192h741v-192h-741z" />
<glyph unicode="&#x2013;" horiz-adv-x="1224" d="M137 485v191h950v-191h-950z" />
<glyph unicode="&#x2014;" horiz-adv-x="1427" d="M137 485v191h1153v-191h-1153z" />
<glyph unicode="&#x2018;" horiz-adv-x="499" d="M98 1016l150 420h164l-97 -420h-217z" />
<glyph unicode="&#x2019;" horiz-adv-x="493" d="M109 1004l98 432h215l-148 -432h-165z" />
<glyph unicode="&#x201a;" horiz-adv-x="507" d="M66 -242l96 424h217l-148 -424h-165z" />
<glyph unicode="&#x201c;" horiz-adv-x="827" d="M96 1001l152 426h162l-99 -426h-215zM420 1001l151 426h166l-102 -426h-215z" />
<glyph unicode="&#x201d;" horiz-adv-x="817" d="M106 1018l99 418h217l-150 -418h-166zM434 1018l94 418h217l-149 -418h-162z" />
<glyph unicode="&#x201e;" horiz-adv-x="833" d="M63 -242l99 424h217l-148 -424h-168zM393 -242l96 424h216l-146 -424h-166z" />
<glyph unicode="&#x2022;" horiz-adv-x="802" d="M158 676q0 109 69.5 174t178.5 65q102 0 170.5 -65.5t68.5 -173.5q0 -109 -70 -174.5t-172 -65.5q-106 0 -175.5 64.5t-69.5 175.5z" />
<glyph unicode="&#x2026;" horiz-adv-x="1284" d="M115 104q0 66 40 96.5t87 30.5q49 0 89 -31.5t40 -97.5q0 -63 -41 -95t-88 -32q-47 2 -87 34t-40 95zM514 104q0 66 41 96.5t88 30.5t88 -31.5t41 -97.5q0 -63 -41 -95t-88 -32q-47 2 -88 34t-41 95zM913 104q0 66 40 96.5t87 30.5q49 0 89 -31.5t40 -97.5q0 -63 -41 -95 t-88 -32q-47 2 -87 34t-40 95z" />
<glyph unicode="&#x202f;" horiz-adv-x="379" />
<glyph unicode="&#x2039;" horiz-adv-x="661" d="M76 608l282 453h217l-282 -453l282 -452h-217z" />
<glyph unicode="&#x203a;" horiz-adv-x="663" d="M86 156l283 454l-283 451h217l285 -451l-285 -454h-217z" />
<glyph unicode="&#x205f;" horiz-adv-x="474" />
<glyph unicode="&#x20ac;" horiz-adv-x="1239" d="M78 756v172h135q25 113 79 210t141 167.5t206 110.5t270 40q57 0 113.5 -10t112.5 -27l-64 -190q-76 20 -158 20q-190 0 -304.5 -83t-164.5 -238h492l-41 -172h-496v-47q0 -6 -1 -19.5t1 -19.5h459l-35 -168h-383q41 -158 159 -240t319 -82q47 0 96 9.5t96 25.5l61 -211 q-59 -20 -125.5 -30.5t-132.5 -10.5q-158 0 -276.5 37t-204.5 106.5t-140 168t-81 219.5h-129v168h104v20v20v54h-108z" />
<glyph unicode="&#x2122;" horiz-adv-x="1644" d="M123 1292v142h579v-142h-206v-448h-166v448h-207zM776 844v592h174l183 -230l186 230h172v-592h-170l8 364l-180 -229h-35l-174 233l8 -368h-172z" />
<glyph unicode="&#x25fc;" horiz-adv-x="1013" d="M0 0v1014h1014v-1014h-1014z" />
<glyph unicode="&#xfb01;" horiz-adv-x="1325" d="M63 838v174h195v57q0 92 26.5 164t76 120t117 71.5t149.5 23.5q37 0 76.5 -8t76.5 -23l-41 -178q-29 16 -53 19.5t-57 3.5q-76 0 -123 -47.5t-47 -145.5v-57h653v-836h150v-176h-504v176h149v662h-448v-658h166v-180h-525v180h158v658h-195zM883 1313q0 61 39 94t88 33 q49 -2 88 -35t39 -94t-39 -94t-88 -33t-88 33.5t-39 95.5z" />
<glyph unicode="&#xfb02;" horiz-adv-x="1331" d="M63 827v168h197v72q0 123 44 201t114.5 123t162 61t187.5 16q98 -2 188.5 -12t157.5 -20v-1254h152v-182h-498v182h145v1092q-31 4 -72.5 9t-88.5 7q-53 2 -105.5 -6t-93.5 -32.5t-66.5 -69.5t-25.5 -115v-72h262v-168h-262v-651h149v-176h-510v176h160v651h-197z" />
</font>
</defs>
</svg>
