<?xml version="1.0" encoding="UTF-8" standalone="no"?>
<!-- Generator: Adobe Illustrator 16.0.0, SVG Export Plug-In . SVG Version: 6.00 Build 0)  -->

<svg
   xmlns:dc="http://purl.org/dc/elements/1.1/"
   xmlns:cc="http://creativecommons.org/ns#"
   xmlns:rdf="http://www.w3.org/1999/02/22-rdf-syntax-ns#"
   xmlns:svg="http://www.w3.org/2000/svg"
   xmlns="http://www.w3.org/2000/svg"
   xmlns:sodipodi="http://sodipodi.sourceforge.net/DTD/sodipodi-0.dtd"
   xmlns:inkscape="http://www.inkscape.org/namespaces/inkscape"
   version="1.1"
   id="Layer_1"
   x="0px"
   y="0px"
   width="48"
   height="48"
   viewBox="0 0 48 48"
   enable-background="new 0 0 2600 3401"
   xml:space="preserve"
   inkscape:version="0.48.4 r9939"
   sodipodi:docname="key [Converted].svg"><metadata
   id="metadata9"><rdf:RDF><cc:Work
       rdf:about=""><dc:format>image/svg+xml</dc:format><dc:type
         rdf:resource="http://purl.org/dc/dcmitype/StillImage" /><dc:title></dc:title></cc:Work></rdf:RDF></metadata><defs
   id="defs7" /><sodipodi:namedview
   pagecolor="#ffffff"
   bordercolor="#666666"
   borderopacity="1"
   objecttolerance="10"
   gridtolerance="10"
   guidetolerance="10"
   inkscape:pageopacity="0"
   inkscape:pageshadow="2"
   inkscape:window-width="864"
   inkscape:window-height="538"
   id="namedview5"
   showgrid="false"
   inkscape:zoom="2.2205234"
   inkscape:cx="-59.244104"
   inkscape:cy="-12.260116"
   inkscape:window-x="0"
   inkscape:window-y="192"
   inkscape:window-maximized="0"
   inkscape:current-layer="Layer_1" />
<path
   d="m 37.49984,12.70127 c -5.27934,0 -9.64815,3.9203 -10.37942,9.0001 H 1.50002 c -0.82801,0 -1.50002,0.672 -1.50002,1.5 0,0.828 0.67201,1.5001 1.50002,1.5001 h 1.50003 v 4.5 c 0,0.828 0.67201,1.5001 1.50002,1.5001 0.82801,0 1.50002,-0.6721 1.50002,-1.5001 v -4.5 h 3.00005 v 1.5 c 0,0.828 0.67201,1.5 1.50002,1.5 0.82877,0 1.50003,-0.672 1.50003,-1.5 v -1.5 h 15.12023 c 0.73127,5.0798 5.10083,9.0001 10.37942,9.0001 5.79009,0 10.50016,-4.7101 10.50016,-10.5002 0,-5.7901 -4.71007,-10.5001 -10.50016,-10.5001 z m 0,18.0003 c -4.13482,0 -7.50012,-3.3646 -7.50012,-7.5002 0,-4.1355 3.36455,-7.5001 7.50012,-7.5001 4.13556,0 7.50011,3.3646 7.50011,7.5001 0,4.1356 -3.36455,7.5002 -7.50011,7.5002 z"
   id="path3"
   style="fill:#000000"
   inkscape:connector-curvature="0" />
</svg>