<?xml version="1.0" encoding="UTF-8" standalone="no"?>
<!-- Created with Inkscape (http://www.inkscape.org/) -->

<svg
   xmlns:dc="http://purl.org/dc/elements/1.1/"
   xmlns:cc="http://creativecommons.org/ns#"
   xmlns:rdf="http://www.w3.org/1999/02/22-rdf-syntax-ns#"
   xmlns:svg="http://www.w3.org/2000/svg"
   xmlns="http://www.w3.org/2000/svg"
   xmlns:sodipodi="http://sodipodi.sourceforge.net/DTD/sodipodi-0.dtd"
   xmlns:inkscape="http://www.inkscape.org/namespaces/inkscape"
   width="48px"
   height="48px"
   id="svg3000"
   version="1.1"
   inkscape:version="0.48.4 r9939"
   sodipodi:docname="New document 2">
  <defs
     id="defs3002" />
  <sodipodi:namedview
     id="base"
     pagecolor="#ffffff"
     bordercolor="#666666"
     borderopacity="1.0"
     inkscape:pageopacity="0.0"
     inkscape:pageshadow="2"
     inkscape:zoom="4.9497475"
     inkscape:cx="-32.034802"
     inkscape:cy="45.354195"
     inkscape:current-layer="layer1"
     showgrid="true"
     inkscape:grid-bbox="true"
     inkscape:document-units="px"
     inkscape:window-width="1216"
     inkscape:window-height="897"
     inkscape:window-x="1730"
     inkscape:window-y="50"
     inkscape:window-maximized="0" />
  <metadata
     id="metadata3005">
    <rdf:RDF>
      <cc:Work
         rdf:about="">
        <dc:format>image/svg+xml</dc:format>
        <dc:type
           rdf:resource="http://purl.org/dc/dcmitype/StillImage" />
        <dc:title></dc:title>
      </cc:Work>
    </rdf:RDF>
  </metadata>
  <g
     id="layer1"
     inkscape:label="Layer 1"
     inkscape:groupmode="layer">
    <g
       id="g3017"
       transform="matrix(0.36888458,0,0,0.36888458,12.933463,13.46044)">
      <path
         style="fill:#000000"
         id="path3"
         d="m -30.995,73.602929 h 121.99 c 2.246,0 4.066,-1.833 4.066,-4.094 v -12.281 c 0,-2.261 -1.821,-4.094 -4.066,-4.094 h -8.133 v -65.5 c 0,-2.261 -1.821,-4.094 -4.066,-4.094 h -97.592 c -2.246,0 -4.066,1.833 -4.066,4.094 v 65.5 h -8.133 c -2.246,0 -4.066,1.833 -4.066,4.094 v 12.281 c -10e-4,2.261 1.82,4.094 4.066,4.094 z M -14.73,-8.2720714 H 74.729 V 53.134929 H -14.73 V -8.2720714 z M -26.929,61.321929 h 8.133 97.592 8.133 v 4.094 H -26.928 v -4.094 z"
         inkscape:connector-curvature="0" />
      <path
         style="fill:#000000"
         id="path5"
         d="m 27.113,-2.9910714 c -0.753,0.777 -1.18,1.841 -1.18,2.90599997 0,1.08600003 0.427,2.12900003 1.199,2.88700003 0.752,0.777 1.789,1.208 2.867,1.208 1.078,0 2.114,-0.43 2.887,-1.208 0.752,-0.758 1.18,-1.82300003 1.18,-2.88700003 0,-1.06499997 -0.427,-2.12899997 -1.199,-2.90599997 -1.505,-1.515 -4.229,-1.515 -5.754,0 z"
         inkscape:connector-curvature="0" />
    </g>
  </g>
</svg>
