<?xml version="1.0" encoding="UTF-8" standalone="no"?>
<!-- Created with Inkscape (http://www.inkscape.org/) -->

<svg
   xmlns:dc="http://purl.org/dc/elements/1.1/"
   xmlns:cc="http://creativecommons.org/ns#"
   xmlns:rdf="http://www.w3.org/1999/02/22-rdf-syntax-ns#"
   xmlns:svg="http://www.w3.org/2000/svg"
   xmlns="http://www.w3.org/2000/svg"
   xmlns:sodipodi="http://sodipodi.sourceforge.net/DTD/sodipodi-0.dtd"
   xmlns:inkscape="http://www.inkscape.org/namespaces/inkscape"
   width="48px"
   height="48px"
   id="svg2993"
   version="1.1"
   inkscape:version="0.48.4 r9939"
   sodipodi:docname="New document 2">
  <defs
     id="defs2995" />
  <sodipodi:namedview
     id="base"
     pagecolor="#ffffff"
     bordercolor="#666666"
     borderopacity="1.0"
     inkscape:pageopacity="0.0"
     inkscape:pageshadow="2"
     inkscape:zoom="7"
     inkscape:cx="24"
     inkscape:cy="24"
     inkscape:current-layer="layer1"
     showgrid="true"
     inkscape:grid-bbox="true"
     inkscape:document-units="px"
     inkscape:window-width="1071"
     inkscape:window-height="661"
     inkscape:window-x="175"
     inkscape:window-y="367"
     inkscape:window-maximized="0" />
  <metadata
     id="metadata2998">
    <rdf:RDF>
      <cc:Work
         rdf:about="">
        <dc:format>image/svg+xml</dc:format>
        <dc:type
           rdf:resource="http://purl.org/dc/dcmitype/StillImage" />
        <dc:title></dc:title>
      </cc:Work>
    </rdf:RDF>
  </metadata>
  <g
     id="layer1"
     inkscape:label="Layer 1"
     inkscape:groupmode="layer">
    <path
       inkscape:connector-curvature="0"
       style="fill:#000000"
       d="m 9,-1.4e-7 c -0.8285,0 -1.5,0.67150004 -1.5,1.50000004 l 0,13.9687501 -6.5625,2.625 C 0.3517,18.32925 9e-4,18.9044 0,19.5 l 0,27 C 0,47.3284 0.6716,48 1.5,48 l 45,0 c 0.8284,0 1.5,-0.6707 1.5,-1.5 l 0,-27 c -9e-4,-0.5956 -0.3509,-1.17165 -0.9375,-1.40625 L 40.5,15.46875 40.5,1.4999999 C 40.5,0.6714999 39.8284,-1.4e-7 39,-1.4e-7 l -30,0 z m 1.5,3.00000004 27,0 0,13.5312501 0,7.0625 -13.5,8.375 -13.5,-8.375 0,-7.0625 0,-13.5312501 z m 16.5,3 c -0.8285,0 -1.5,0.6715 -1.5,1.5 9e-4,0.8293 0.6715,1.5 1.5,1.5 l 6,0 c 0.8284,0 1.5,-0.6716 1.5,-1.5 0,-0.8285 -0.6716,-1.5 -1.5,-1.5 l -6,0 z M 15,12 c -0.8285,0 -1.5,0.6715 -1.5,1.5 9e-4,0.8293 0.6724,1.5 1.5,1.5 l 18,0 c 0.8284,0 1.5,-0.6716 1.5,-1.5 C 34.5,12.6715 33.8284,12 33,12 l -18,0 z m 0,6 c -0.8285,0 -1.5,0.6715 -1.5,1.5 9e-4,0.8293 0.6724,1.5 1.5,1.5 l 18,0 c 0.8284,0 1.5,-0.6707 1.5,-1.5 C 34.5,18.6715 33.8284,18 33,18 L 15,18 z M 7.5,18.71875 7.5,21.75 4.53125,19.90625 7.5,18.71875 z m 33,0 2.96875,1.1875 L 40.5,21.75 l 0,-3.03125 z m -37.5,3.75 20.21875,12.5625 C 23.46055,35.18055 23.7253,35.25 24,35.25 c 0.2747,0 0.53855,-0.06985 0.78125,-0.21875 L 45,22.46875 45,45 3,45 3,22.46875 z"
       id="path3" />
  </g>
</svg>
