<?xml version="1.0" encoding="UTF-8" standalone="no"?>
<!-- Created with Inkscape (http://www.inkscape.org/) -->

<svg
   xmlns:dc="http://purl.org/dc/elements/1.1/"
   xmlns:cc="http://creativecommons.org/ns#"
   xmlns:rdf="http://www.w3.org/1999/02/22-rdf-syntax-ns#"
   xmlns:svg="http://www.w3.org/2000/svg"
   xmlns="http://www.w3.org/2000/svg"
   xmlns:sodipodi="http://sodipodi.sourceforge.net/DTD/sodipodi-0.dtd"
   xmlns:inkscape="http://www.inkscape.org/namespaces/inkscape"
   width="48px"
   height="48px"
   id="svg3000"
   version="1.1"
   inkscape:version="0.48.4 r9939"
   sodipodi:docname="New document 2">
  <defs
     id="defs3002" />
  <sodipodi:namedview
     id="base"
     pagecolor="#ffffff"
     bordercolor="#666666"
     borderopacity="1.0"
     inkscape:pageopacity="0.0"
     inkscape:pageshadow="2"
     inkscape:zoom="7"
     inkscape:cx="6.9285714"
     inkscape:cy="24"
     inkscape:current-layer="layer1"
     showgrid="true"
     inkscape:grid-bbox="true"
     inkscape:document-units="px"
     inkscape:window-width="1010"
     inkscape:window-height="737"
     inkscape:window-x="1780"
     inkscape:window-y="100"
     inkscape:window-maximized="0" />
  <metadata
     id="metadata3005">
    <rdf:RDF>
      <cc:Work
         rdf:about="">
        <dc:format>image/svg+xml</dc:format>
        <dc:type
           rdf:resource="http://purl.org/dc/dcmitype/StillImage" />
        <dc:title></dc:title>
      </cc:Work>
    </rdf:RDF>
  </metadata>
  <g
     id="layer1"
     inkscape:label="Layer 1"
     inkscape:groupmode="layer">
    <g
       id="g3017"
       transform="matrix(0.75,0,0,0.75,6,6)">
      <path
         style="fill:#000000"
         id="path3"
         d="m 23.999,52 c 1.104,0 2,-0.896 2,-2 V 22.829 l 4.586,4.585 c 0.391,0.39 0.902,0.586 1.414,0.586 0.512,0 1.023,-0.195 1.414,-0.586 0.781,-0.781 0.781,-2.048 0,-2.828 l -8,-8 c -0.781,-0.781 -2.047,-0.781 -2.828,0 l -8,8 c -0.781,0.781 -0.781,2.047 0,2.828 0.781,0.781 2.046,0.781 2.828,0 l 4.586,-4.585 V 50 c 0,1.104 0.895,2 2,2 z"
         inkscape:connector-curvature="0" />
      <path
         style="fill:#000000"
         id="path5"
         d="M 47.924,16.186 C 46.998,4.901 37.518,-4 25.999,-4 15.776,-4 6.957,2.635 4.409,12 H 4 c -6.617,0 -12,5.383 -12,12 0,6.617 5.383,12 12,12 h 12 c 1.104,0 2,-0.896 2,-2 0,-1.104 -0.896,-2 -2,-2 H 4 c -4.411,0 -8,-3.589 -8,-8 0,-4.411 3.589,-8 8,-8 H 6 C 6.962,16 7.788,15.315 7.966,14.37 9.53,6.044 17.115,0 26,0 c 9.925,0 18,8.075 18,18 0,1.104 0.895,2 2,2 3.309,0 6,2.691 6,6 0,3.309 -2.691,6 -6,6 H 32 c -1.104,0 -2,0.896 -2,2 0,1.104 0.896,2 2,2 h 14 c 5.514,0 10,-4.486 10,-10 0,-4.856 -3.48,-8.914 -8.076,-9.814 z"
         inkscape:connector-curvature="0" />
    </g>
  </g>
</svg>
